<?xml version="1.0" standalone="no"?>
<!DOCTYPE svg PUBLIC "-//W3C//DTD SVG 20010904//EN"
 "http://www.w3.org/TR/2001/REC-SVG-20010904/DTD/svg10.dtd">
<svg version="1.0" xmlns="http://www.w3.org/2000/svg"
 width="6500.000000pt" height="4000.000000pt" viewBox="0 0 6500.000000 4000.000000"
 preserveAspectRatio="xMidYMid meet">

<g transform="translate(0.000000,4000.000000) scale(0.100000,-0.100000)"
fill="#000000" stroke="none">
<path d="M47440 36113 c-96 -15 -234 -48 -312 -74 -269 -90 -538 -268 -721
-476 -58 -66 -226 -310 -369 -534 l-36 -56 -78 -12 c-441 -68 -1176 -281
-1490 -432 -171 -81 -180 -122 -40 -189 98 -47 243 -89 436 -125 80 -14 155
-29 168 -31 l23 -5 -35 -62 c-85 -154 -131 -320 -124 -450 8 -142 54 -195 157
-185 50 5 52 4 46 -16 -4 -12 -9 -77 -12 -145 -4 -99 -3 -127 8 -135 8 -6 20
-33 27 -61 34 -132 115 -193 268 -203 107 -6 209 10 354 58 184 60 421 180
655 330 88 57 94 59 245 89 203 40 250 55 282 88 50 52 60 106 29 165 l-18 37
151 104 c83 57 183 126 223 152 l72 47 199 29 c231 33 485 84 660 132 l123 34
71 -96 c480 -651 576 -766 747 -903 l74 -59 31 29 c77 73 218 146 341 178 48
12 108 18 190 19 106 0 130 -3 207 -29 50 -16 116 -47 153 -72 l65 -44 10 26
c24 63 33 127 33 244 0 188 -30 312 -141 590 -17 41 -40 122 -52 180 -67 329
-247 700 -471 977 -281 347 -696 625 -1131 757 -103 32 -461 110 -573 126 -73
10 -386 12 -445 3z m-287 -667 c196 -30 325 -89 450 -206 113 -105 178 -221
196 -354 8 -53 0 -206 -14 -272 -4 -20 -10 -19 -277 38 -150 32 -509 108 -798
169 -289 61 -528 114 -532 118 -5 4 17 58 48 121 48 97 67 125 133 190 190
188 442 250 794 196z"/>
<path d="M12996 34350 c-140 -13 -293 -37 -426 -66 -262 -59 -612 -195 -828
-323 -50 -29 -53 -30 -91 -16 -66 23 -258 63 -391 80 -169 23 -603 31 -795 16
-515 -42 -825 -163 -825 -321 0 -41 26 -95 58 -120 13 -11 19 -20 12 -20 -51
0 -371 -58 -495 -90 -348 -89 -515 -201 -515 -346 0 -61 22 -105 81 -158 125
-113 405 -205 794 -261 274 -40 440 -50 812 -50 l351 0 6 -115 c4 -63 16 -342
27 -620 11 -278 24 -525 30 -548 19 -87 72 -159 133 -182 90 -34 190 70 210
220 4 25 18 326 32 670 13 343 27 626 29 628 3 4 142 32 156 32 4 0 9 -10 12
-22 2 -13 35 -124 71 -248 37 -124 76 -255 87 -292 l20 -68 264 0 c158 0 265
-4 265 -9 0 -5 12 -11 28 -13 l27 -3 3 -102 3 -103 154 0 155 0 0 99 0 100
128 3 c70 2 425 2 790 0 l662 -3 0 -99 0 -100 155 0 155 0 0 98 0 98 38 17
c33 15 76 17 295 17 l256 0 20 68 c105 361 151 515 153 517 2 1 46 -3 98 -9
l95 -11 26 -635 c28 -687 30 -708 88 -787 33 -46 97 -77 139 -67 62 15 116 80
142 169 10 35 59 1041 60 1226 l0 66 229 6 c672 20 1183 126 1414 294 50 37
91 97 102 150 34 165 -225 323 -671 408 -77 15 -150 29 -163 31 -23 5 -22 6
17 42 150 139 28 289 -302 372 -218 55 -459 80 -781 80 -299 0 -539 -24 -746
-73 l-94 -23 -120 63 c-308 160 -664 271 -1020 318 -144 19 -481 27 -619 15z
m-2016 -355 c119 -8 265 -21 325 -30 114 -17 280 -52 304 -65 9 -5 -18 -29
-85 -75 -85 -59 -206 -151 -267 -203 -17 -15 -18 -11 -16 77 2 112 -9 132 -96
176 -56 28 -67 30 -175 30 -98 0 -122 -4 -166 -23 -29 -13 -64 -36 -79 -52
-27 -28 -28 -33 -26 -127 l2 -98 -148 8 c-155 7 -437 2 -632 -13 -106 -9 -117
-8 -147 11 -123 75 -107 159 42 235 178 89 419 137 769 153 88 5 165 9 170 9
6 1 107 -5 225 -13z m4821 0 c123 -9 271 -22 329 -31 343 -49 560 -147 560
-253 0 -46 -123 -146 -170 -137 -62 13 -294 29 -500 35 l-225 6 3 81 c3 60 0
89 -12 112 -69 134 -453 134 -522 0 -13 -24 -14 -48 -9 -125 l7 -94 -113 91
c-63 50 -162 124 -221 163 -65 44 -102 74 -95 79 18 9 205 44 317 58 52 7 167
16 255 20 88 4 163 8 166 8 3 1 106 -5 230 -13z m-5031 -450 c257 -21 322 -31
332 -49 7 -13 28 -16 104 -16 207 0 562 -112 682 -215 107 -92 95 -183 -35
-271 -32 -21 -60 -42 -63 -46 -3 -4 -46 -23 -95 -42 -361 -139 -956 -205
-1582 -176 -619 28 -1068 126 -1275 277 -244 177 33 387 652 492 394 67 821
82 1280 46z m5445 4 c99 -6 186 -15 194 -19 13 -7 -95 -36 -219 -59 l-45 -8
36 -16 c34 -15 42 -15 140 8 57 13 130 33 163 44 56 20 62 20 159 5 397 -59
706 -175 777 -290 24 -37 26 -94 5 -134 -31 -60 -169 -147 -306 -194 -315
-107 -715 -159 -1219 -159 -287 1 -721 23 -765 39 -19 8 -19 21 0 74 8 23 15
48 15 54 0 9 -152 13 -261 7 -9 -1 -36 -17 -61 -36 l-46 -36 -80 21 c-344 87
-523 223 -458 348 28 54 136 129 246 170 30 11 69 27 85 36 69 35 331 91 562
120 345 44 648 51 1078 25z"/>
<path d="M11222 33261 c-3 -44 4 -52 70 -80 l46 -19 -50 66 c-28 37 -53 68
-57 69 -3 2 -7 -14 -9 -36z"/>
<path d="M15072 33108 c-18 -24 -60 -71 -93 -105 l-60 -63 124 0 123 0 23 73
c13 39 25 77 28 83 3 8 -88 54 -108 54 -2 0 -19 -19 -37 -42z"/>
<path d="M47760 33775 c-107 -24 -178 -55 -210 -91 -79 -91 -27 -216 102 -244
29 -6 141 -24 248 -40 298 -45 458 -84 685 -165 200 -73 200 -73 232 -49 47
35 50 66 13 142 -24 50 -57 91 -124 157 -135 134 -292 223 -485 276 -101 28
-364 36 -461 14z"/>
<path d="M49680 33154 c-124 -33 -246 -108 -352 -216 -68 -68 -81 -94 -53
-104 10 -4 46 23 103 77 152 144 268 199 429 207 83 4 113 1 170 -16 155 -48
231 -181 203 -357 -11 -69 -8 -85 16 -85 31 0 50 123 35 219 -24 147 -108 238
-256 277 -66 18 -226 17 -295 -2z"/>
<path d="M47833 33146 c-82 -20 -163 -66 -227 -127 -50 -50 -57 -60 -46 -74 7
-8 15 -15 19 -15 3 0 31 23 60 50 165 153 386 164 610 31 58 -35 84 -34 79 1
-2 17 -25 34 -96 70 -144 73 -275 94 -399 64z"/>
<path d="M46305 33119 c-27 -6 -78 -24 -112 -40 -66 -31 -183 -131 -183 -155
0 -34 32 -24 87 26 32 28 87 65 123 83 55 26 80 32 157 35 80 4 105 1 175 -22
46 -14 109 -41 141 -61 65 -39 82 -43 92 -18 8 22 -18 44 -96 83 -128 65 -274
91 -384 69z"/>
<path d="M47855 32865 c-51 -25 -85 -89 -85 -157 0 -183 188 -245 268 -88 12
24 22 63 22 85 0 85 -74 175 -144 175 -17 0 -45 -7 -61 -15z"/>
<path d="M46311 32834 c-73 -38 -109 -144 -77 -229 25 -63 75 -105 129 -105
76 0 127 46 146 130 30 135 -90 258 -198 204z"/>
<path d="M47047 32743 c-9 -21 -34 -83 -57 -138 -60 -144 -90 -265 -90 -358 0
-100 21 -145 87 -184 45 -27 54 -28 170 -28 100 0 125 3 139 17 31 31 8 38
-96 32 -202 -14 -272 46 -249 214 11 75 59 229 110 346 44 101 49 136 20 136
-12 0 -24 -13 -34 -37z"/>
<path d="M45657 32530 c-135 -195 -181 -276 -232 -415 -68 -182 -91 -347 -60
-422 18 -42 30 -53 64 -53 21 0 23 -3 17 -37 -3 -21 -8 -92 -12 -157 -6 -100
-5 -121 8 -130 9 -7 22 -51 32 -116 30 -175 92 -341 179 -475 40 -60 43 -70
30 -80 -20 -15 -11 -32 50 -94 54 -55 124 -96 182 -107 33 -6 55 -22 120 -89
133 -137 298 -246 471 -311 79 -29 276 -84 304 -84 11 0 20 -1 20 -2 0 -2 -11
-36 -25 -77 -85 -248 -88 -536 -9 -732 33 -82 55 -119 121 -201 l53 -67 -25
-68 c-60 -158 -192 -341 -395 -544 -136 -137 -320 -299 -339 -299 -20 0 -33
176 -28 369 8 323 75 636 194 915 34 80 33 101 -3 94 -24 -4 -102 -189 -149
-349 -40 -136 -79 -332 -95 -477 -15 -127 -7 -464 12 -541 16 -66 41 -86 66
-55 12 16 155 68 537 194 286 95 522 174 524 176 2 1 -63 136 -143 300 l-146
297 0 366 0 367 126 13 c342 33 749 123 1031 226 144 53 386 175 480 242 153
108 275 205 348 274 55 52 79 69 101 69 15 0 37 9 49 20 11 11 47 40 81 64
180 129 312 440 330 779 3 61 10 122 16 133 14 30 -15 171 -51 250 -28 59 -28
64 -24 200 2 76 1 166 -4 199 l-8 59 -70 26 c-110 41 -155 68 -222 133 -62 59
-133 176 -133 218 0 10 -4 21 -10 24 -5 3 -10 -1 -10 -9 0 -26 -84 -179 -132
-242 -149 -193 -411 -353 -685 -419 l-72 -18 -87 29 c-66 21 -90 25 -103 17
-13 -8 -34 -7 -77 2 -333 76 -898 76 -1232 0 -47 -11 -67 -12 -81 -3 -14 8
-29 7 -66 -5 -47 -16 -48 -16 -119 12 -180 72 -345 208 -431 355 -40 69 -91
203 -121 317 -14 57 -27 105 -28 106 -1 1 -55 -74 -119 -167z m2271 -790 c43
-64 17 -154 -61 -211 -62 -46 -170 -94 -268 -118 -103 -26 -335 -61 -401 -61
-42 0 -48 3 -48 20 0 25 -6 24 169 44 399 47 641 177 565 304 -18 31 -13 67 9
60 6 -3 22 -19 35 -38z"/>
<path d="M32815 32314 c-730 -55 -1417 -261 -2034 -611 l-113 -64 -132 35
c-753 203 -1990 186 -2634 -36 -263 -90 -384 -191 -384 -318 0 -27 8 -63 21
-87 21 -41 87 -106 129 -126 37 -17 25 -24 -55 -31 -120 -11 -403 -54 -563
-87 -464 -94 -778 -223 -923 -378 -62 -66 -87 -121 -87 -191 0 -106 63 -197
194 -284 301 -201 877 -338 1686 -401 260 -21 837 -30 1085 -17 110 6 201 9
202 8 1 -1 20 -447 42 -991 44 -1061 45 -1075 101 -1186 61 -119 167 -183 264
-158 99 25 190 147 221 296 10 46 27 393 55 1083 23 558 43 1020 44 1026 2 6
48 18 102 28 55 9 109 20 121 22 20 5 24 -4 57 -108 28 -92 150 -505 247 -840
l20 -68 424 0 c277 0 425 -3 425 -10 0 -5 16 -10 35 -10 l35 0 0 -170 0 -170
245 0 245 0 0 170 0 170 1235 0 1235 0 0 -170 0 -170 245 0 245 0 0 170 0 170
35 0 c19 0 35 5 35 10 0 7 148 10 424 10 396 0 425 1 430 18 3 9 28 98 56 197
87 307 211 720 218 727 4 4 71 0 149 -9 l142 -17 5 -70 c3 -39 22 -478 41
-976 23 -587 40 -934 50 -988 34 -198 140 -326 270 -326 86 0 161 57 214 163
60 118 59 106 101 1116 22 517 40 963 40 991 l0 51 303 6 c892 19 1628 141
2053 342 231 108 344 228 344 365 0 211 -283 392 -822 525 -172 42 -509 105
-563 105 -38 0 -30 14 21 38 60 30 143 108 165 157 102 223 -247 422 -901 514
-671 95 -1480 69 -2027 -65 l-102 -25 -121 66 c-261 144 -547 266 -855 364
-330 105 -588 159 -960 202 -90 10 -686 20 -780 13z m-3110 -564 c292 -21 572
-63 780 -117 55 -14 104 -28 108 -30 4 -3 -43 -39 -105 -80 -140 -94 -275
-194 -396 -295 -50 -43 -95 -78 -99 -78 -3 0 -3 62 0 138 6 129 5 139 -16 176
-51 91 -183 145 -372 153 -196 8 -357 -41 -429 -131 l-31 -38 3 -169 3 -170
-28 8 c-49 14 -951 9 -1149 -6 l-180 -13 -50 25 c-107 55 -174 130 -174 197 0
66 67 142 172 196 271 138 608 205 1248 248 88 6 562 -3 715 -14z m7540 0
c904 -68 1428 -289 1244 -524 -25 -31 -112 -92 -187 -130 l-54 -27 -156 15
c-254 25 -420 35 -704 43 l-268 6 6 151 c6 148 6 152 -18 186 -59 87 -189 139
-369 147 -184 9 -336 -35 -417 -120 -44 -46 -49 -76 -42 -237 4 -74 6 -136 5
-137 0 -1 -41 32 -91 73 -127 108 -330 259 -469 350 -142 92 -129 83 -123 89
2 3 67 18 144 35 213 45 420 70 784 94 96 6 569 -3 715 -14z m-7960 -700 c138
-11 302 -27 365 -35 63 -8 119 -15 126 -15 6 0 14 -9 17 -19 4 -17 17 -19 148
-23 121 -3 170 -10 307 -42 391 -89 672 -206 798 -333 90 -90 105 -177 47
-271 -28 -46 -129 -130 -200 -167 -21 -11 -40 -23 -43 -26 -26 -33 -282 -124
-501 -178 -420 -104 -825 -154 -1408 -172 -1060 -35 -2043 97 -2546 341 -137
67 -226 134 -270 204 -63 103 -32 210 90 309 59 48 261 153 340 177 22 7 54
18 70 26 58 26 278 84 448 118 290 59 649 102 1032 126 230 14 895 3 1180 -20z
m8230 20 c282 -11 535 -28 580 -39 25 -6 6 -13 -120 -44 -82 -20 -187 -42
-233 -48 l-84 -13 34 -17 c33 -17 39 -17 154 6 140 27 256 56 337 84 l57 20
170 -25 c436 -63 758 -148 995 -264 378 -184 404 -388 74 -585 -440 -261
-1488 -415 -2560 -376 -362 14 -841 50 -856 65 -2 1 11 45 27 97 16 52 30 100
30 107 0 9 -49 12 -211 12 l-211 0 -75 -60 c-42 -33 -83 -60 -93 -60 -27 0
-255 65 -385 110 -262 91 -449 228 -471 346 -27 143 141 294 451 407 39 14 84
33 101 41 18 9 110 36 205 60 583 147 1288 207 2084 176z"/>
<path d="M29968 30609 c-1 -39 -1 -75 2 -79 3 -4 45 -26 94 -49 63 -29 84 -36
75 -23 -8 11 -48 65 -91 121 l-76 102 -4 -72z"/>
<path d="M36009 30383 c-23 -32 -89 -107 -144 -168 l-102 -110 191 1 190 1 38
119 c21 65 38 124 38 130 0 9 -66 43 -156 80 -6 3 -31 -21 -55 -53z"/>
<path d="M49731 30458 c0 -146 3 -205 10 -189 18 46 39 195 39 281 0 71 -3 90
-18 103 -10 10 -22 17 -25 17 -4 0 -7 -96 -6 -212z"/>
<path d="M50366 29028 c-2 -7 -9 -65 -15 -128 -44 -438 -200 -812 -436 -1044
-78 -77 -175 -151 -322 -244 l-112 -71 -106 75 c-447 317 -843 723 -1068 1098
l-33 55 -185 -176 c-266 -255 -389 -375 -389 -382 0 -3 401 -159 890 -346 490
-187 890 -345 890 -351 0 -29 35 -18 127 39 358 223 548 444 676 788 69 184
124 443 129 609 3 82 2 85 -20 88 -12 2 -24 -3 -26 -10z"/>
<path d="M50582 28588 c-437 -1349 -726 -2617 -856 -3748 -28 -241 -56 -555
-56 -624 0 -39 -3 -46 -20 -46 -10 0 -23 -6 -27 -14 -7 -13 -197 -6 -1363 51
-745 36 -1356 67 -1358 68 -6 5 48 498 99 905 110 891 246 1732 405 2511 60
297 60 296 40 280 -11 -9 -15 -8 -21 6 -6 16 -7 16 -15 3 -11 -20 -105 -481
-166 -810 -143 -779 -277 -1704 -363 -2505 -17 -154 -33 -304 -36 -332 l-6
-53 -42 0 c-23 0 -265 11 -537 25 -272 14 -513 25 -536 25 l-40 0 -18 58 c-53
168 -152 273 -295 316 -62 18 -162 20 -331 6 -110 -8 -343 -23 -570 -35 -58
-3 -251 -14 -429 -25 -178 -11 -326 -18 -328 -16 -3 2 1 73 6 157 8 104 8 155
1 157 -5 2 -10 13 -10 24 0 17 8 13 49 -25 55 -52 84 -62 142 -53 87 14 171
86 186 159 3 15 9 27 13 27 5 0 52 -55 106 -122 54 -67 114 -137 132 -157 30
-32 34 -33 49 -19 9 9 13 22 10 30 -16 33 -794 953 -807 953 -45 0 -12 -50
220 -328 132 -158 240 -295 240 -305 0 -36 -22 -93 -47 -122 -31 -38 -65 -55
-122 -65 l-43 -7 -72 73 c-40 41 -107 121 -150 179 -97 129 -291 421 -341 513
-26 47 -42 67 -54 65 -8 -2 -17 -10 -19 -19 -5 -28 257 -438 396 -619 60 -78
65 -88 63 -129 -4 -82 -46 -151 -108 -177 -50 -21 -102 -17 -137 10 -84 63
-361 445 -525 724 -42 70 -66 88 -77 57 -9 -23 232 -405 376 -595 76 -101 73
-94 56 -153 -33 -114 -159 -175 -234 -112 -72 60 -233 280 -435 594 l-131 203
-51 -5 c-65 -7 -367 -76 -379 -87 -5 -5 -6 -16 -2 -25 8 -21 6 -21 230 31 166
38 169 38 183 19 8 -11 86 -129 173 -263 171 -260 255 -376 334 -460 60 -64
91 -82 146 -84 l41 -1 -3 -41 -3 -41 -100 -7 c-55 -4 -437 -28 -850 -53 -412
-25 -772 -50 -800 -56 -128 -28 -256 -117 -335 -234 -30 -44 -31 -48 -10 -32
14 10 49 29 78 43 l53 26 1967 119 c2146 130 2027 127 2141 71 69 -34 142
-104 174 -169 14 -27 262 -753 551 -1612 289 -860 527 -1565 529 -1568 5 -4
252 94 381 151 l59 26 -170 122 -169 122 -117 350 c-64 192 -116 351 -114 352
1 1 292 -119 646 -267 l644 -269 1456 279 c1459 280 2861 548 3000 575 l74 13
117 -116 c248 -246 452 -542 645 -936 154 -314 265 -623 354 -985 80 -324 123
-610 137 -917 l7 -141 -64 -6 c-35 -3 -656 -26 -1379 -51 -3351 -117 -4378
-155 -4493 -169 -67 -8 -178 -20 -247 -27 -69 -6 -126 -13 -127 -14 -1 0 36
-113 84 -251 78 -225 86 -256 87 -324 0 -142 -83 -261 -215 -306 -30 -11 -573
-47 -1938 -130 -2125 -129 -1979 -126 -2130 -54 -100 48 -199 142 -249 236
-27 53 -221 623 -894 2639 -77 231 -144 423 -147 428 -4 4 -150 -336 -324
-755 -309 -744 -679 -1636 -710 -1710 l-16 -38 -63 29 c-251 113 -601 354
-843 581 -508 476 -903 1097 -1094 1717 -67 219 -122 492 -103 516 28 37 1351
1818 1372 1847 13 19 141 192 283 383 142 192 257 351 255 353 -3 2 -65 33
-139 68 -170 81 -394 170 -411 164 -7 -3 -177 -261 -377 -573 -201 -312 -375
-574 -388 -583 -91 -64 -164 -123 -221 -176 -37 -35 -216 -176 -399 -315 -253
-192 -353 -275 -423 -348 -215 -227 -377 -549 -438 -873 -36 -188 -45 -302
-39 -524 5 -222 19 -326 76 -586 16 -74 37 -184 46 -245 71 -456 285 -962 586
-1387 180 -253 428 -529 683 -759 121 -109 126 -112 336 -155 341 -71 707 -50
1046 60 102 33 120 36 232 36 338 0 682 96 942 265 36 23 170 121 299 219 129
97 237 173 241 169 4 -4 12 -116 19 -248 23 -453 41 -677 66 -800 66 -328 242
-693 464 -960 l50 -60 -552 -92 c-2809 -472 -5401 -974 -8024 -1555 l-412 -91
-5 -41 c-3 -23 -10 -144 -16 -271 -6 -126 -12 -277 -15 -335 -10 -201 -25
-857 -25 -1112 0 -224 2 -258 15 -258 9 0 241 60 518 134 444 119 749 200
1312 346 1263 329 3201 800 4549 1106 1234 280 2962 652 2974 640 2 -3 1 -26
-2 -50 -6 -36 -12 -47 -29 -51 -12 -3 -193 -41 -402 -84 -1020 -214 -2511
-544 -3280 -726 -1438 -341 -1982 -473 -2880 -700 -1198 -302 -2742 -710
-2762 -729 -10 -9 -10 -91 2 -406 34 -917 72 -1452 157 -2208 25 -220 35 -282
45 -278 28 11 824 242 1358 394 1283 367 2542 709 3995 1086 688 179 2367 594
3093 764 l208 49 -7 -46 c-3 -25 -9 -49 -13 -53 -4 -5 -128 -37 -276 -72
-2387 -564 -5107 -1281 -7555 -1989 -740 -214 -795 -230 -799 -233 -10 -9 126
-904 195 -1277 26 -143 26 -171 -1 -161 -8 3 -15 2 -15 -3 0 -5 -14 -7 -31 -5
-21 3 -30 1 -25 -6 3 -6 2 -13 -3 -16 -5 -4 -13 -1 -17 5 -5 8 -3 9 7 4 8 -5
11 -4 6 1 -8 8 -75 7 -90 -3 -4 -3 -32 -6 -62 -8 -30 -2 -60 -7 -66 -11 -7 -4
-32 -7 -56 -7 -24 0 -43 -3 -43 -7 0 -4 -12 -6 -26 -4 -15 1 -52 -2 -83 -7
-62 -11 -128 -20 -151 -21 -8 -1 -20 -8 -26 -16 -8 -11 -13 -12 -18 -3 -6 9
-13 8 -29 -6 -21 -18 -21 -18 -7 1 14 18 13 19 -3 13 -10 -4 -23 -7 -28 -7 -6
0 -7 -6 -3 -12 6 -10 4 -10 -8 0 -13 10 -17 10 -21 0 -4 -10 -6 -9 -6 1 -1 11
-5 10 -17 -5 -8 -10 -12 -13 -8 -5 5 11 0 13 -27 8 -19 -3 -120 -18 -226 -33
-105 -16 -190 -31 -187 -35 2 -4 -1 -11 -7 -15 -8 -4 -9 -3 -5 4 11 18 -4 16
-420 -53 -905 -150 -1690 -302 -2588 -501 -409 -90 -1096 -251 -1103 -258 -2
-1 17 -45 41 -97 72 -156 186 -488 186 -545 0 -8 4 -14 9 -14 5 0 69 38 143
84 431 271 938 516 1327 640 360 116 730 170 996 146 506 -45 806 -294 897
-745 31 -152 28 -439 -7 -601 -4 -19 24 -12 318 84 422 137 1423 455 1652 525
1490 455 2015 613 2795 842 1352 396 2822 806 4105 1145 596 158 838 220 842
217 4 -4 -13 -96 -18 -101 -2 -2 -60 -17 -129 -35 -896 -232 -2638 -705 -3245
-881 -55 -16 -291 -84 -525 -150 -1038 -296 -2467 -721 -3320 -988 -1309 -409
-2431 -770 -2446 -785 -6 -7 -19 -48 -29 -92 -39 -177 -148 -480 -235 -656
-22 -45 -40 -83 -40 -85 0 -2 26 8 58 22 551 251 932 364 1277 381 204 9 377
-35 472 -121 92 -82 134 -220 113 -372 -48 -362 -367 -855 -914 -1412 -98
-100 -177 -184 -175 -186 4 -3 505 -17 1279 -36 2298 -56 4716 -27 6655 80 94
5 226 12 295 15 445 22 1382 90 2000 146 880 79 2093 216 2515 284 50 8 187
28 305 45 178 26 419 62 725 109 2219 344 4331 845 6280 1488 1010 333 1802
651 2638 1058 194 94 198 97 193 123 -19 91 -180 1140 -223 1447 -14 105 -26
191 -27 192 -1 1 -29 -4 -64 -12 l-63 -13 -19 39 c-11 21 -20 42 -20 47 0 5
34 15 75 22 41 7 75 17 75 22 0 5 -16 127 -35 271 -108 816 -204 1695 -267
2455 -26 318 -35 392 -47 392 -18 0 -983 -166 -1366 -235 -44 -8 -134 -24
-200 -35 -66 -11 -125 -22 -131 -24 -6 -2 25 -42 69 -88 334 -351 963 -1283
1517 -2247 l54 -93 -12 -157 c-22 -274 -74 -476 -180 -695 l-58 -119 -79 134
c-43 74 -84 140 -90 147 -9 10 -22 11 -56 3 -24 -6 -233 -52 -464 -102 -742
-160 -1786 -395 -2618 -589 -71 -17 -133 -30 -138 -30 -5 0 -9 22 -9 49 0 42
3 49 23 53 12 3 306 71 652 151 648 150 1654 375 2200 492 171 36 320 69 331
71 20 5 14 19 -78 182 -705 1250 -1204 2333 -1273 2763 l-5 35 -183 -33 c-396
-73 -1705 -321 -1784 -338 -21 -5 -23 -2 -23 44 0 42 3 50 23 54 60 15 1055
205 1552 297 121 22 279 51 350 65 267 50 1405 251 1820 320 88 15 161 28 162
29 1 1 -7 136 -17 301 -58 931 -65 1735 -19 2213 6 62 9 115 7 118 -15 14
-2125 -306 -3030 -459 -109 -19 -198 -31 -198 -28 -1 3 -5 25 -9 49 -5 23 -7
42 -5 42 2 0 122 20 267 45 696 117 1588 256 2413 374 308 45 566 81 571 81 6
0 16 30 23 68 26 139 78 279 118 315 24 22 19 41 61 -273 252 -1884 1017
-7494 1026 -7517 6 -19 53 -27 70 -13 8 7 15 28 15 48 0 19 -40 328 -90 686
-170 1234 -510 3732 -850 6247 -60 449 -110 827 -110 839 l0 21 31 -22 c46
-33 113 -123 172 -232 50 -94 53 -97 82 -92 17 2 192 25 390 50 198 25 376 47
395 50 270 35 445 56 782 95 792 92 1549 173 2143 230 176 17 340 33 365 35
126 13 366 35 454 41 l98 7 -6 37 c-10 66 -106 390 -176 600 -142 425 -301
807 -512 1233 l-137 277 -50 0 c-27 0 -206 -11 -398 -25 -191 -13 -386 -27
-433 -30 -47 -3 -103 -8 -125 -10 -22 -3 -112 -9 -200 -15 -165 -12 -1325
-106 -1405 -115 -25 -3 -126 -12 -225 -20 -747 -64 -2074 -201 -2960 -306
-502 -59 -548 -65 -930 -113 -192 -24 -352 -42 -354 -41 -1 2 19 27 46 55 l50
51 99 14 c593 82 2308 273 3314 370 91 9 233 22 315 30 194 19 658 60 900 80
105 9 210 18 235 20 25 3 131 12 235 20 105 8 244 20 310 25 110 9 550 42 740
55 44 3 105 8 135 10 30 3 159 12 285 20 252 16 355 25 355 31 0 9 -201 353
-283 484 -181 291 -402 610 -420 610 -103 0 -1231 -61 -1677 -91 -817 -53
-2405 -178 -2597 -204 l-41 -6 90 88 c49 48 115 118 145 156 44 54 73 77 147
118 132 74 300 187 418 281 132 104 402 374 506 506 353 446 582 987 659 1558
27 198 24 661 -4 844 -41 259 -101 490 -183 704 -23 59 -43 106 -45 104 -1 -2
8 -54 21 -117 79 -390 43 -853 -95 -1223 -159 -426 -413 -753 -771 -991 l-85
-57 -7 147 c-27 615 -234 1246 -577 1757 -222 330 -540 641 -843 824 -197 119
-447 219 -647 260 -50 10 -93 20 -95 23 -8 7 196 93 319 134 196 65 424 114
634 135 138 13 422 13 557 -2 165 -17 218 -17 222 4 5 27 -24 35 -193 53 -210
23 -558 16 -752 -13 -268 -42 -545 -125 -778 -234 l-130 -61 -180 -7 c-193 -8
-294 -25 -465 -79 -52 -17 -95 -29 -97 -27 -15 15 -498 1244 -517 1316 -86
323 -97 660 -31 910 24 86 81 220 121 281 20 30 13 59 -14 59 -33 0 -122 -171
-161 -310 -80 -288 -62 -677 48 -1028 l28 -90 -23 -160 c-58 -413 -154 -785
-291 -1127 l-57 -143 -60 -17 c-135 -38 -249 -104 -365 -212 l-71 -65 -31 69
c-17 37 -56 129 -87 203 -55 135 -55 135 -63 275 -17 305 -4 895 20 903 14 5
15 52 0 52 -7 0 -8 23 -5 68 4 37 11 121 16 187 99 1154 390 2494 856 3942 46
144 84 266 84 271 0 18 -824 282 -880 282 -13 0 -37 -64 -108 -282z m7713
-11641 c74 -41 147 -180 174 -329 5 -27 5 -48 0 -48 -5 0 -9 7 -9 15 0 9 -6
12 -15 9 -10 -4 -15 0 -15 15 0 12 -4 21 -9 21 -5 0 -7 -10 -3 -22 5 -21 5
-21 -15 -1 -23 23 -203 113 -227 113 -9 0 -16 3 -16 8 0 8 -49 36 -92 51 -16
6 -28 15 -28 21 0 6 -10 8 -25 4 -40 -10 -31 18 24 74 91 92 174 115 256 69z
m-17671 -991 c18 -7 43 -30 55 -49 22 -37 37 -102 20 -92 -5 4 -9 13 -9 21 0
8 -4 14 -10 14 -5 0 -10 -8 -10 -17 0 -15 -2 -16 -10 -3 -5 8 -10 11 -10 5 0
-9 -53 -16 -145 -19 -16 -1 -36 -8 -43 -16 -12 -13 -13 -12 -7 4 6 19 5 19
-14 2 -31 -28 -32 -4 -1 46 31 50 86 99 122 110 13 3 24 6 26 7 1 1 18 -5 36
-13z m13049 -2027 c21 -5 53 -24 72 -40 36 -32 95 -138 95 -172 0 -18 -1 -18
-25 -3 -24 16 -35 10 -16 -9 6 -6 -27 -11 -91 -11 -61 -1 -103 -6 -107 -13 -4
-6 -59 -16 -121 -22 -84 -9 -118 -16 -127 -28 -15 -20 -17 -7 -3 20 6 11 7 19
2 19 -6 0 -12 -9 -15 -21 -3 -12 -10 -18 -16 -14 -6 3 -11 1 -11 -6 0 -7 -3
-10 -6 -6 -8 7 40 88 93 159 58 76 118 126 173 143 56 17 57 17 103 4z
m-19690 -5504 c4 -8 1 -17 -5 -21 -7 -4 -8 -3 -4 4 4 7 2 12 -4 12 -6 0 -8 5
-5 10 8 14 12 13 18 -5z m41 -16 c-8 -13 -24 -1 -24 18 0 13 3 13 15 3 8 -7
12 -16 9 -21z m-114 15 c0 -8 -19 -13 -24 -6 -3 5 1 9 9 9 8 0 15 -2 15 -3z
m250 -20 c0 -2 -8 0 -19 5 -10 6 -22 7 -26 3 -5 -4 -5 -1 -1 6 5 9 12 9 27 2
10 -6 19 -13 19 -16z m-599 -38 c5 3 8 0 7 -8 -2 -7 4 -12 12 -10 8 2 12 0 7
-4 -4 -4 -18 -9 -30 -11 -17 -2 -19 -1 -7 7 13 9 7 14 -12 11 -4 0 -4 7 -1 16
4 11 8 13 11 5 2 -7 8 -10 13 -6z m6687 -1417 c24 -12 61 -39 82 -61 40 -42
96 -135 86 -145 -3 -3 2 -12 10 -20 8 -9 13 -22 10 -29 -3 -8 0 -14 6 -14 6 0
8 -3 5 -6 -3 -4 -2 -15 4 -25 6 -13 6 -19 -1 -19 -5 0 -10 5 -10 12 0 9 -3 9
-12 0 -16 -16 -31 -15 -25 1 4 11 -6 12 -50 6 -31 -4 -60 -12 -66 -18 -6 -6
-37 -11 -69 -11 -36 0 -58 -4 -58 -11 0 -8 -17 -10 -51 -7 -30 3 -45 2 -37 -3
7 -6 -11 -6 -44 -3 -41 5 -58 3 -58 -5 0 -7 -20 -11 -52 -11 -29 0 -82 -5
-118 -10 -40 -6 -68 -6 -74 0 -6 6 -15 5 -23 -1 -54 -46 86 170 165 254 58 61
134 116 187 135 53 19 144 14 193 -9z m92 -324 c10 -12 10 -15 -4 -15 -9 0
-16 7 -16 15 0 8 2 15 4 15 2 0 9 -7 16 -15z m6346 -40 c3 -25 5 -48 3 -50 -7
-6 -421 -116 -429 -113 -4 2 -1 26 7 53 l14 50 187 52 c103 28 192 51 199 52
7 1 15 -19 19 -44z m-6666 -5 c0 -5 -4 -10 -10 -10 -5 0 -10 5 -10 10 0 6 5
10 10 10 6 0 10 -4 10 -10z m-300 -34 c0 -2 -11 -6 -25 -8 -13 -3 -22 -1 -19
3 5 9 44 13 44 5z m1630 -1441 c0 -2 -5 -26 -11 -54 -9 -44 -14 -51 -42 -60
-18 -5 -246 -76 -507 -156 -261 -81 -568 -176 -682 -211 l-207 -65 -136 7
c-74 4 -134 8 -132 10 5 5 1690 530 1710 533 4 1 7 -1 7 -4z"/>
<path d="M58006 16831 c-4 -5 -2 -12 3 -15 5 -4 12 -2 15 3 4 5 2 12 -3 15 -5
4 -12 2 -15 -3z"/>
<path d="M39745 6580 c3 -5 8 -10 11 -10 2 0 4 5 4 10 0 6 -5 10 -11 10 -5 0
-7 -4 -4 -10z"/>
<path d="M44525 28749 c-104 -32 -244 -77 -310 -100 -136 -47 -548 -199 -554
-205 -16 -15 -192 -853 -265 -1264 -50 -282 -116 -697 -116 -731 0 -21 3 -21
78 -16 160 11 342 -30 444 -101 70 -48 116 -106 238 -296 63 -98 115 -175 117
-170 1 5 14 101 28 214 93 745 261 1630 464 2445 39 154 69 280 68 281 -1 1
-87 -25 -192 -57z"/>
<path d="M7992 25023 c-137 -67 -277 -411 -366 -898 -123 -674 -202 -1586
-213 -2478 l-6 -478 214 8 c531 20 2414 5 2877 -23 l102 -6 0 358 c0 1125
-136 2508 -295 3010 -78 249 -155 364 -241 364 -39 0 -101 -68 -145 -160 -97
-199 -172 -525 -233 -1020 -43 -337 -86 -802 -107 -1153 -7 -108 -13 -196 -15
-195 -1 2 -10 66 -19 143 -86 731 -204 1175 -347 1312 -95 91 -182 47 -272
-139 -103 -215 -176 -533 -238 -1040 -12 -104 -25 -188 -28 -188 -3 0 -12 87
-19 193 -34 530 -115 1196 -191 1577 -92 455 -226 761 -357 816 -42 18 -60 17
-101 -3z"/>
<path d="M11013 23740 c-87 -53 -188 -338 -247 -700 -69 -427 -131 -1115 -152
-1696 l-7 -192 124 -6 c68 -4 252 -13 409 -21 311 -17 908 -53 954 -58 l29 -4
-7 131 c-22 421 -94 1073 -152 1366 -72 362 -175 590 -269 590 -40 0 -93 -56
-135 -144 -40 -84 -100 -277 -121 -391 -7 -36 -15 -65 -18 -65 -4 0 -14 69
-24 153 -64 548 -165 919 -278 1022 -45 40 -61 43 -106 15z"/>
<path d="M43498 22540 c-51 -15 -94 -49 -118 -92 -21 -36 -25 -56 -25 -124 0
-75 3 -87 44 -170 134 -273 468 -419 617 -270 118 117 66 340 -120 513 -129
120 -286 177 -398 143z"/>
<path d="M12607 21796 c-4 -60 -7 -256 -7 -436 l0 -328 23 -6 c12 -3 38 -6 58
-6 l36 0 -8 63 c-5 34 -26 226 -49 427 -22 201 -42 372 -43 380 -2 8 -6 -34
-10 -94z"/>
<path d="M45640 20379 c-136 -15 -301 -28 -372 -28 -70 -1 -129 -5 -132 -10
-4 -5 -3 -16 0 -25 5 -13 26 -16 128 -16 130 0 675 55 690 70 5 5 6 16 3 24
-8 20 -16 20 -317 -15z"/>
<path d="M45739 19915 c-3 -3 -140 -6 -304 -8 -188 -1 -300 -6 -302 -12 -1 -5
1 -16 6 -24 7 -11 60 -13 287 -12 154 1 333 5 399 9 111 6 120 8 120 27 0 18
-8 20 -101 23 -55 1 -102 0 -105 -3z"/>
<path d="M45144 19455 c-4 -9 -3 -20 2 -25 5 -5 177 -14 383 -21 317 -10 374
-10 382 2 23 36 13 37 -523 54 -217 6 -238 6 -244 -10z"/>
<path d="M9751 16391 c-46 -85 -14 -286 173 -1086 272 -1169 390 -1755 515
-2560 40 -255 111 -763 111 -787 0 -7 -15 10 -32 37 -425 670 -803 1162 -1192
1550 -280 280 -488 422 -540 369 -59 -59 29 -250 473 -1028 145 -253 329 -579
411 -725 145 -262 442 -819 456 -854 4 -11 -39 15 -102 60 -214 155 -517 327
-667 378 l-57 19 -21 -21 c-36 -35 -20 -66 48 -93 91 -37 301 -143 404 -206
380 -230 785 -602 1155 -1059 340 -421 742 -1062 930 -1486 26 -57 51 -110 57
-117 6 -7 24 -12 41 -10 22 2 33 10 39 28 8 21 -1 47 -43 140 -58 128 -191
381 -282 537 l-59 101 35 145 c114 473 270 901 483 1327 252 504 488 836 852
1200 296 295 536 474 876 652 61 32 107 58 104 58 -15 0 -254 -86 -379 -137
-749 -305 -1404 -779 -1900 -1374 -89 -107 -244 -313 -301 -399 -14 -22 -16
-7 -28 216 -83 1629 -459 3258 -1020 4419 -239 495 -483 813 -540 706z"/>
<path d="M60289 15176 c-2 -2 -44 -6 -92 -10 -125 -9 -664 -60 -1127 -106
-1087 -110 -2202 -240 -3283 -381 -74 -10 -88 -15 -84 -28 3 -9 35 -93 70
-187 167 -439 371 -1171 562 -2014 37 -162 67 -295 68 -296 1 -1 130 18 287
42 157 24 506 75 775 114 311 45 493 75 498 83 4 6 31 51 60 99 140 234 321
377 463 366 68 -6 110 -37 143 -107 23 -49 26 -69 26 -163 0 -126 -17 -115
155 -93 288 38 1365 171 1592 196 l106 12 6 31 c36 206 44 1025 13 1336 -26
262 -72 569 -122 815 -59 289 -60 295 -89 295 -12 0 -25 -2 -27 -4z"/>
<path d="M25063 12832 c-111 -31 -204 -60 -207 -63 -4 -3 29 -102 72 -220 44
-118 85 -232 92 -253 l13 -40 19 50 c11 27 67 164 125 304 58 140 108 261 110
268 7 18 -4 16 -224 -46z"/>
<path d="M24233 12597 c-271 -78 -490 -143 -488 -145 2 -2 50 -19 107 -39 129
-44 303 -126 399 -188 213 -137 347 -295 378 -442 31 -149 -71 -284 -259 -347
-118 -39 -194 -49 -350 -49 -439 1 -940 188 -1213 452 -88 85 -140 158 -167
234 -12 33 -24 51 -33 49 -8 -1 -277 -81 -598 -178 -321 -97 -623 -188 -671
-202 -49 -14 -88 -29 -88 -33 0 -4 44 -32 98 -63 236 -137 700 -438 906 -588
526 -381 901 -680 1311 -1047 131 -117 186 -169 392 -366 46 -43 84 -77 86
-74 1 2 29 85 61 184 64 198 206 604 284 815 28 74 93 252 145 395 110 299
204 546 342 897 l97 247 -78 218 c-103 290 -149 407 -160 409 -5 1 -230 -61
-501 -139z"/>
<path d="M60368 12590 c-37 -5 -87 -11 -110 -14 -24 -3 -160 -19 -303 -36
-214 -25 -713 -88 -1222 -153 -51 -7 -96 -17 -101 -22 -5 -6 -19 -39 -32 -75
-85 -244 -272 -486 -438 -567 -133 -65 -245 -26 -289 101 -32 92 -15 305 33
430 7 18 4 19 -52 12 -63 -7 -664 -93 -874 -125 -69 -11 -223 -34 -343 -52
-183 -28 -216 -35 -213 -48 8 -26 103 -490 151 -741 114 -584 283 -1565 360
-2080 31 -210 30 -204 52 -191 14 7 22 37 36 128 120 787 387 1619 706 2203
115 210 139 247 163 253 29 8 68 -18 68 -45 0 -11 -29 -71 -64 -132 -314 -547
-549 -1199 -699 -1941 -39 -190 -81 -435 -75 -440 1 -1 35 4 73 12 149 31
1224 235 1570 298 110 20 210 40 221 45 41 16 333 395 509 660 232 348 488
826 641 1195 157 380 291 858 344 1220 6 44 13 88 16 98 6 19 -11 20 -128 7z
m-3434 -1072 c66 -19 162 -123 219 -238 89 -180 128 -416 93 -572 -48 -217
-191 -260 -336 -102 -66 73 -111 156 -154 284 -91 274 -63 545 64 619 41 24
58 25 114 9z m1987 -302 c133 -31 203 -108 178 -198 -65 -245 -632 -431 -906
-297 -94 46 -125 116 -89 203 48 115 254 239 476 287 102 21 263 24 341 5z
m-663 -1374 c217 -114 -16 -426 -418 -558 -75 -25 -100 -28 -215 -28 -121 -1
-133 1 -174 24 -61 34 -83 67 -83 123 0 69 33 131 114 211 81 81 190 150 313
197 121 47 186 59 310 56 91 -2 117 -7 153 -25z"/>
<path d="M8110 11919 c-288 -75 -523 -290 -653 -599 -60 -143 -102 -334 -121
-560 l-6 -65 137 -121 c213 -186 499 -419 685 -558 l38 -28 -69 138 c-117 236
-190 462 -237 734 -85 498 3 851 259 1030 78 55 75 58 -33 29z"/>
<path d="M58535 9224 c-775 -146 -1426 -272 -1432 -277 -3 -4 -43 -337 -49
-412 -5 -64 3 -146 40 -415 25 -185 46 -339 46 -343 0 -18 481 330 675 487
297 242 554 475 795 722 180 185 288 305 273 303 -4 0 -161 -30 -348 -65z"/>
<path d="M25615 9128 c-540 -45 -1124 -250 -1637 -575 -350 -222 -593 -418
-929 -753 -217 -216 -360 -376 -508 -570 -86 -112 -99 -149 -60 -170 30 -17
61 -5 85 33 120 186 558 658 839 902 851 741 1803 1108 2689 1036 237 -19 541
-78 705 -136 55 -19 66 -19 85 1 20 19 20 48 1 67 -36 37 -418 128 -636 153
-30 3 -65 8 -79 10 -46 10 -454 11 -555 2z"/>
<path d="M56981 8914 c0 -11 3 -14 6 -6 3 7 2 16 -1 19 -3 4 -6 -2 -5 -13z"/>
<path d="M22664 4815 c5 -13 2 -14 -15 -4 -12 6 -39 8 -62 5 -23 -3 -71 -8
-107 -11 -36 -3 -82 -7 -102 -10 -20 -3 -63 -7 -95 -10 -32 -2 -119 -9 -193
-16 -74 -6 -150 -12 -167 -11 -18 0 -33 -4 -33 -9 0 -5 6 -9 14 -9 8 0 22 -3
32 -7 13 -5 15 -3 9 7 -5 9 0 7 16 -3 29 -21 50 -22 23 -2 -10 9 0 6 24 -6 24
-12 53 -19 67 -17 14 3 25 2 25 -2 0 -4 6 -7 13 -7 6 0 25 -4 41 -8 23 -6 27
-5 21 6 -8 12 -6 12 8 0 15 -11 211 -54 234 -50 5 1 10 0 13 -1 10 -4 56 -11
90 -13 19 -2 40 -6 47 -10 6 -4 14 -1 16 5 4 10 6 10 6 0 1 -8 6 -10 14 -5 16
10 68 12 61 2 -2 -4 -11 -6 -19 -2 -8 3 -15 1 -15 -4 0 -5 6 -10 13 -11 6 0
30 -3 52 -7 22 -3 49 -8 60 -9 11 -2 31 -6 44 -11 20 -6 23 -5 17 10 -4 13 -2
16 9 11 8 -3 14 -2 14 2 -3 19 2 23 14 13 10 -8 14 -7 14 2 0 7 -11 13 -23 13
-12 0 -20 -4 -18 -8 3 -4 0 -8 -6 -8 -7 0 -9 8 -5 20 6 20 -14 80 -27 80 -3 0
-9 18 -13 40 -4 22 -11 40 -16 40 -5 0 -9 7 -9 15 0 11 -12 15 -46 15 -37 0
-45 -3 -40 -15z m73 -11 c-3 -3 -12 -4 -19 -1 -8 3 -5 6 6 6 11 1 17 -2 13 -5z
m-278 -105 c-14 -8 -29 -3 -29 11 0 4 9 6 21 3 15 -4 17 -8 8 -14z m-14 -19
c22 -11 32 -20 21 -20 -10 0 -29 9 -43 20 -14 11 -24 20 -21 20 2 0 21 -9 43
-20z m305 -73 c0 -7 -3 -8 -8 -2 -4 6 -13 10 -19 11 -35 3 -38 4 -24 13 17 11
51 -4 51 -22z m27 27 c-3 -3 -12 -4 -19 -1 -8 3 -5 6 6 6 11 1 17 -2 13 -5z"/>
<path d="M22900 4600 c0 -5 5 -10 11 -10 5 0 7 5 4 10 -3 6 -8 10 -11 10 -2 0
-4 -4 -4 -10z"/>
<path d="M23163 4545 c0 -8 4 -12 9 -9 5 3 6 10 3 15 -9 13 -12 11 -12 -6z"/>
</g>
</svg>
