<?xml version="1.0" encoding="utf-8"?>
<!-- Generator: Adobe Illustrator 27.5.0, SVG Export Plug-In . SVG Version: 6.00 Build 0)  -->
<svg version="1.1" xmlns="http://www.w3.org/2000/svg" xmlns:xlink="http://www.w3.org/1999/xlink" x="0px" y="0px"
	 viewBox="0 0 500 500" style="enable-background:new 0 0 500 500;" xml:space="preserve">
<g id="Floor">
	<path id="Floor_00000045591727787018846270000003303744350533563795_" style="fill:#F5F5F5;" d="M77.661,220.251
		c-95.177,54.951-95.175,144.044,0.005,198.995c95.18,54.951,249.496,54.951,344.674,0c95.178-54.951,95.175-144.044-0.005-198.995
		C327.154,165.3,172.838,165.3,77.661,220.251z"/>
</g>
<g id="Shadows">
	<g id="Shadow_00000119796704759213759610000017390262300748512647_">
		<path style="fill:#E0E0E0;" d="M286.637,222.31c-6.63,3.828-17.416,3.828-24.045,0c-3.212-1.854-4.98-4.319-4.98-6.941
			c-0.001-2.622,1.768-5.087,4.979-6.941c0.001-0.001,0.001-0.001,0.002-0.001c3.21-1.854,7.48-2.875,12.022-2.875
			c4.542,0,8.812,1.021,12.023,2.876C293.266,212.255,293.266,218.483,286.637,222.31z"/>
		<polygon style="fill:#E0E0E0;" points="251.9,328.447 194,402.667 178.092,402.47 199.445,325.2 76.583,306.516 82.711,295.413 
			214.443,296.9 267.535,216.927 283.184,216.927 266.898,300.148 389.761,318.833 383.632,329.934 		"/>
		<path style="fill:#E0E0E0;" d="M198.793,408.296c-6.63,3.828-17.416,3.828-24.045,0c-6.629-3.827-6.63-10.055,0-13.883
			c3.212-1.854,7.482-2.876,12.023-2.875c4.542,0,8.812,1.021,12.023,2.876c3.21,1.852,4.979,4.318,4.98,6.94
			C203.773,403.977,202.005,406.442,198.793,408.296z"/>
		<path style="fill:#E0E0E0;" d="M408.232,332.498c-6.629,3.827-17.416,3.827-24.045,0c-6.629-3.827-6.629-10.055,0-13.882
			c6.63-3.828,17.416-3.828,24.045,0C414.861,322.442,414.86,328.67,408.232,332.498L408.232,332.498z"/>
		<path style="fill:#E0E0E0;" d="M83.316,307.352c-6.628,3.826-17.414,3.826-24.044,0c-6.63-3.828-6.63-10.055-0.001-13.882
			c6.63-3.828,17.417-3.828,24.046-0.001c6.629,3.827,6.629,10.055,0.001,13.882L83.316,307.352z"/>
		<path style="fill:#E0E0E0;" d="M268.312,358.146l-48.321-15.092l-0.631-0.385c-0.346-0.211-34.833-21.252-56.677-34.359
			c-21.122-12.673-37.979-25.263-12.594-39.919c25.384-14.656,47.19-4.923,69.141,7.272c22.701,12.612,59.146,32.523,59.511,32.723
			l0.657,0.359l26.342,27.793L268.312,358.146z"/>
	</g>
	<path id="Shadow_00000053519335476991020620000005787348005576352686_" style="fill:#E0E0E0;" d="M440.038,417.467l-38.702-22.347
		c0.708-1.401,1.089-2.907,1.089-4.487c0-4.565-3.162-9.01-8.676-12.193c-4.983-2.877-11.545-4.527-18.003-4.527
		c-5.437,0-10.474,1.179-14.185,3.321l-18.557,10.712l-36.369-19.091l-0.003,0.005c-0.746-0.388-1.671-0.128-2.096,0.608
		c-0.425,0.736-0.188,1.667,0.522,2.12l-0.003,0.005l31.633,20l-22.227,12.831l-36.261-19.034l-0.003,0.005
		c-0.747-0.388-1.671-0.128-2.096,0.608c-0.425,0.736-0.188,1.667,0.522,2.12l-0.003,0.005l31.534,19.938l-28.949,16.711
		c-4.248,2.452-6.588,6-6.588,9.987c0,4.565,3.162,9.009,8.676,12.191c4.983,2.877,11.545,4.528,18.003,4.528
		c3.65,0,7.108-0.543,10.117-1.54c0.366,0.407,0.806,0.772,1.328,1.073l39.764,22.958c1.271,0.734,2.621,0.888,3.53,0.888
		c0.907,0,2.256-0.154,3.521-0.886l82.483-47.622c1.783-1.029,2.804-2.648,2.803-4.444
		C442.843,420.115,441.82,418.495,440.038,417.467z"/>
</g>
<g id="Clouds">
	<path id="Cloud_00000145017135476168607630000012510188614327144627_" style="fill:#F0F0F0;" d="M423.205,91.631
		c-1.075-0.487-2.354-0.532-3.277-0.605c-1.061-0.084-1.397-0.294-1.601-0.524c-2.581-3.693-6.846-3.834-9.392-2.775
		c-0.624-2.541-3.698-4.747-7.083-4.004c0.116-3.301-4.099-6.849-7.887-7.655c-3.633-0.773-6.799-0.448-8.872,1.94
		c-2.219-4.333-10.916-5.553-15.622-3.261c-2.706,1.318-5.002,2.671-6.125,5.151c-0.741,1.637-1.005,2.727-1.019,4.931
		c-1.834-1.617-5.507-2.054-7.957-1.106c-2.641,1.021-2.842,3.012-2.972,5.037c-2.589-0.653-4.322-0.231-4.808-0.087
		c-1.664,0.493-2.623,1.799-2.395,2.855c-1.316-0.074-4.453,0.991-4.092,2.381c0.405,1.56,3.987,1.403,5.324,1.353
		c1.107-0.041,2.542-0.337,3.745-0.588c0.366,0.181,1.337,0.374,1.948,0.37c2.281-0.016,3.246-0.994,3.613-1.842
		c1.113,2.344,5.075,4.129,7.875,4.846c5.273,1.35,12.735,0.527,15.982-3.414c0.34,0.709,0.91,1.369,1.571,1.914
		c1.289,1.061,3.028,1.804,4.879,1.977c2.165,0.202,7.978,0.48,9.615-2.963c1.16,2.29,6.333,3.332,10.268,2.773
		c1.472-0.209,3.124-0.72,4.406-1.33c1.034-0.492,1.621-0.972,2.533-1.519c0.775-0.465,1.125-0.46,2.159-0.148
		c2.7,0.814,5.835,1.147,8.591-0.009C424.809,94.407,425.268,92.566,423.205,91.631z"/>
	<path id="Cloud_00000176728693905153348170000001393338224008823743_" style="fill:#F0F0F0;" d="M141.203,134.822
		c-1.24-0.562-2.716-0.614-3.781-0.698c-1.224-0.097-1.612-0.339-1.848-0.604c-2.977-4.26-7.899-4.423-10.837-3.202
		c-0.72-2.932-4.266-5.476-8.171-4.619c0.134-3.809-4.73-7.902-9.1-8.832c-4.191-0.892-7.844-0.517-10.236,2.238
		c-2.56-4.999-12.594-6.407-18.024-3.763c-3.123,1.521-5.771,3.081-7.066,5.943c-0.855,1.889-1.16,3.147-1.176,5.689
		c-2.116-1.865-6.354-2.37-9.18-1.276c-3.047,1.179-3.278,3.475-3.429,5.812c-2.987-0.753-4.986-0.266-5.547-0.1
		c-1.92,0.569-3.026,2.076-2.763,3.294c-1.519-0.085-5.137,1.143-4.722,2.747c0.467,1.8,4.6,1.618,6.143,1.561
		c1.278-0.047,2.933-0.389,4.321-0.679c0.422,0.208,1.542,0.432,2.247,0.427c2.632-0.019,3.745-1.146,4.168-2.125
		c1.284,2.704,5.855,4.764,9.085,5.591c6.084,1.557,14.693,0.608,18.439-3.939c0.393,0.818,1.05,1.58,1.813,2.208
		c1.487,1.225,3.494,2.081,5.629,2.281c2.498,0.234,9.204,0.554,11.093-3.419c1.338,2.642,7.307,3.845,11.847,3.2
		c1.698-0.241,3.604-0.83,5.083-1.534c1.192-0.568,1.87-1.121,2.922-1.752c0.895-0.537,1.298-0.53,2.491-0.171
		c3.116,0.939,6.732,1.323,9.911-0.01C143.053,138.025,143.583,135.9,141.203,134.822z"/>
	<path id="Cloud_00000151523829095780199790000016177416966602931077_" style="fill:#F5F5F5;" d="M461.077,152.972
		c-0.85-0.385-1.861-0.421-2.592-0.478c-0.839-0.066-1.105-0.233-1.266-0.414c-2.041-2.92-5.414-3.032-7.427-2.195
		c-0.494-2.01-2.924-3.754-5.601-3.166c0.092-2.611-3.242-5.416-6.237-6.054c-2.872-0.611-5.377-0.355-7.016,1.534
		c-1.754-3.426-8.632-4.392-12.354-2.579c-2.14,1.042-3.956,2.112-4.843,4.073c-0.586,1.295-0.795,2.157-0.806,3.899
		c-1.45-1.278-4.355-1.624-6.292-0.875c-2.089,0.808-2.247,2.382-2.35,3.984c-2.048-0.516-3.418-0.182-3.802-0.069
		c-1.316,0.39-2.074,1.423-1.894,2.258c-1.041-0.058-3.521,0.784-3.236,1.883c0.32,1.234,3.152,1.109,4.21,1.07
		c0.876-0.032,2.01-0.267,2.962-0.465c0.289,0.143,1.057,0.296,1.54,0.293c1.804-0.013,2.567-0.786,2.857-1.457
		c0.88,1.853,4.013,3.265,6.227,3.832c4.17,1.068,10.071,0.417,12.639-2.7c0.269,0.561,0.72,1.083,1.242,1.513
		c1.019,0.84,2.395,1.427,3.858,1.563c1.712,0.16,6.309,0.38,7.604-2.343c0.917,1.81,5.008,2.635,8.12,2.193
		c1.164-0.165,2.47-0.569,3.484-1.052c0.817-0.389,1.282-0.768,2.003-1.201c0.613-0.368,0.89-0.363,1.707-0.117
		c2.135,0.644,4.614,0.907,6.794-0.007C462.345,155.167,462.708,153.711,461.077,152.972z"/>
	<path id="Cloud_00000070096608776928705750000011851730012923376769_" style="fill:#F5F5F5;" d="M187.586,69.285
		c-0.85-0.385-1.861-0.421-2.592-0.478c-0.839-0.066-1.105-0.233-1.266-0.414c-2.041-2.92-5.414-3.032-7.427-2.195
		c-0.494-2.009-2.924-3.754-5.601-3.166c0.092-2.611-3.242-5.416-6.237-6.054c-2.872-0.611-5.377-0.355-7.016,1.534
		c-1.754-3.426-8.632-4.392-12.354-2.579c-2.14,1.042-3.956,2.112-4.843,4.073c-0.586,1.295-0.795,2.157-0.806,3.899
		c-1.45-1.278-4.355-1.624-6.292-0.875c-2.089,0.808-2.247,2.382-2.35,3.984c-2.048-0.516-3.418-0.182-3.802-0.069
		c-1.316,0.39-2.074,1.423-1.894,2.258c-1.041-0.058-3.521,0.784-3.236,1.883c0.32,1.234,3.153,1.109,4.211,1.07
		c0.876-0.032,2.01-0.267,2.961-0.465c0.289,0.143,1.057,0.296,1.54,0.293c1.804-0.013,2.567-0.786,2.857-1.457
		c0.88,1.853,4.013,3.265,6.227,3.832c4.17,1.068,10.071,0.417,12.639-2.7c0.269,0.561,0.72,1.083,1.242,1.513
		c1.019,0.84,2.395,1.427,3.858,1.563c1.712,0.16,6.309,0.38,7.604-2.343c0.917,1.81,5.008,2.635,8.12,2.193
		c1.164-0.165,2.47-0.569,3.484-1.052c0.817-0.389,1.282-0.768,2.003-1.201c0.613-0.368,0.89-0.364,1.708-0.117
		c2.135,0.644,4.614,0.907,6.794-0.007C188.854,71.481,189.217,70.025,187.586,69.285z"/>
</g>
<g id="Control_00000104694093069718585450000002080391946845671611_">
	<g id="Control">
		<g>
			<path style="fill:#263238;" d="M318.112,399.68c0-0.728-0.256-1.24-0.669-1.478c-0.012-0.007-0.026-0.008-0.038-0.014
				l0.003-0.005l-39.412-20.689l-0.003,0.004c-0.68-0.353-1.523-0.116-1.91,0.554c-0.387,0.67-0.171,1.519,0.475,1.931l-0.003,0.004
				l37.623,23.787l0.003-0.005c0.011,0.007,0.02,0.019,0.031,0.026c0.413,0.238,0.984,0.204,1.615-0.16
				C317.089,402.906,318.111,401.136,318.112,399.68z"/>
			<g>
				<path style="fill:#455A64;" d="M318.111,399.679c0-0.728-0.256-1.24-0.669-1.478c-0.413-0.239-0.984-0.204-1.615,0.16
					c-1.261,0.728-2.284,2.499-2.284,3.955c0,0.728,0.256,1.24,0.669,1.478c0.413,0.238,0.984,0.204,1.615-0.16
					C317.089,402.907,318.111,401.136,318.111,399.679z"/>
			</g>
		</g>
		<g>
			<path style="fill:#263238;" d="M346.546,383.249c0-0.728-0.256-1.24-0.669-1.478c-0.012-0.007-0.026-0.008-0.038-0.014
				l0.003-0.005l-39.412-20.689l-0.003,0.004c-0.68-0.353-1.523-0.116-1.91,0.554c-0.387,0.67-0.171,1.519,0.475,1.931l-0.003,0.004
				l37.623,23.787l0.003-0.005c0.011,0.007,0.02,0.019,0.031,0.026c0.413,0.238,0.984,0.204,1.615-0.16
				C345.524,386.476,346.546,384.705,346.546,383.249z"/>
			<g>
				<path style="fill:#455A64;" d="M346.546,383.249c0-0.728-0.256-1.24-0.669-1.478c-0.413-0.239-0.984-0.204-1.615,0.16
					c-1.261,0.728-2.284,2.499-2.284,3.955c0,0.728,0.256,1.24,0.669,1.478c0.413,0.238,0.984,0.204,1.615-0.16
					C345.524,386.476,346.546,384.705,346.546,383.249z"/>
			</g>
		</g>
		<g>
			<path style="fill:#263238;" d="M397.037,378.55c-0.009-3.172-2.332-6.516-6.857-9.128v0c-8.288-4.785-20.826-5.305-28.004-1.161
				l-79.327,45.792c-3.252,1.877-4.843,4.389-4.84,7.02c0.003,2.88,0.024,9.203-0.006,11.807c-0.037,3.2,2.287,6.583,6.856,9.221
				l0,0c8.288,4.785,20.826,5.305,28.004,1.161l79.327-45.792c3.242-1.872,4.833-4.374,4.84-6.997
				C397.038,387.586,397.044,381.188,397.037,378.55z"/>
			<path style="fill:#37474F;" d="M392.191,385.59l-79.327,45.792c-7.178,4.144-19.716,3.624-28.004-1.161h0
				c-8.288-4.785-9.189-12.024-2.011-16.168l79.327-45.792c7.178-4.144,19.716-3.624,28.004,1.161v0
				C398.468,374.207,399.369,381.446,392.191,385.59z"/>
		</g>
		<g>
			<polygon style="fill:#BA68C8;" points="362.794,467.677 314.05,439.534 314.05,434.844 362.794,462.987 			"/>
			<polygon style="opacity:0.2;" points="362.794,467.677 314.05,439.534 314.05,434.844 362.794,462.987 			"/>
			<polygon style="fill:#BA68C8;" points="314.05,434.844 330.298,425.463 379.042,453.606 362.794,462.987 			"/>
		</g>
		<g>
			<polygon style="fill:#BA68C8;" points="419.661,434.844 370.917,406.702 370.917,402.011 419.661,430.154 			"/>
			<polygon style="opacity:0.2;" points="419.661,434.844 370.917,406.702 370.917,402.011 419.661,430.154 			"/>
			<polygon style="fill:#BA68C8;" points="370.917,402.011 387.165,392.631 435.91,420.774 419.661,430.154 			"/>
		</g>
		<g id="Mobile_4_">
			<g>
				<path style="fill:#37474F;" d="M393.798,389.786l-80.1,46.246c-2.061,1.19-2.038,2.542-2.038,3.754
					c0,1.212,0.546,2.892,2.038,3.754l38.193,22.051c1.492,0.861,3.91,0.861,5.402,0l80.101-46.246
					c1.492-0.861,1.831-2.305,1.831-3.517c0-1.212-0.339-3.13-1.831-3.991L399.2,389.786
					C397.708,388.925,395.875,388.587,393.798,389.786z"/>
				<path style="fill:#263238;" d="M395.771,391.453l39.275,22.675l-80.453,46.435v5.674c0.977,0,1.955-0.215,2.701-0.646
					l80.101-46.246c1.492-0.861,1.831-2.305,1.831-3.517c0-1.212-0.339-3.13-1.831-3.991L399.2,389.786
					c-0.932-0.538-2.093-0.932-3.429-0.721c0,0,0,0.176,0,0.176V391.453z"/>
			</g>
			<path style="fill:#455A64;" d="M314.391,438.833l38.304,22.114c1.043,0.604,2.748,0.604,3.79,0.002l79.45-45.871
				c1.601-0.924,1.6-2.441-0.003-3.365l-37.283-21.527c-1.182-0.682-3.113-0.683-4.296,0l-79.962,46.166
				C313.208,437.035,313.209,438.151,314.391,438.833z"/>
			<g>
				<path d="M319.122,435.779L393.39,392.9c1.126-0.65,2.962-0.652,4.083-0.002l34.531,19.936c1.13,0.648,1.131,1.703,0.002,2.354
					l-74.814,43.194c-0.913,0.527-2.29,0.631-3.379,0.298c-0.084-0.027-0.166-0.052-0.248-0.08
					c-0.159-0.063-0.313-0.136-0.453-0.217l-9.713-5.607c0,0-0.285-0.163-0.633-0.366c-0.35-0.201-0.352-0.528,0-0.731
					c0.348-0.201,0.332-0.541-0.044-0.756l-11.318-6.535c-0.372-0.214-0.96-0.227-1.308-0.026c-0.327,0.189-0.849,0.202-1.202,0.039
					c-0.024-0.011-0.046-0.024-0.068-0.036l-9.499-5.486l-0.204-0.116C317.701,437.939,317.702,436.599,319.122,435.779z"/>
				<path style="fill:#FAFAFA;" d="M396.972,396.61c-1.121-0.65-2.957-0.648-4.083,0.002l-73.384,42.368l9.321,5.383
					c0.022,0.013,0.043,0.025,0.068,0.036c0.354,0.163,0.875,0.15,1.202-0.039c0.348-0.201,0.936-0.188,1.308,0.026l11.318,6.535
					c0.376,0.215,0.392,0.555,0.044,0.756c-0.351,0.203-0.35,0.53,0.001,0.731c0.348,0.203,0.633,0.366,0.633,0.366l9.713,5.607
					c0.14,0.081,0.294,0.154,0.453,0.217c0.081,0.029,0.164,0.053,0.248,0.08c1.089,0.333,2.466,0.229,3.379-0.298l73.387-42.37
					L396.972,396.61z"/>
				<g>
					<g>
						<path style="fill:#455A64;" d="M349.519,433.938c0.672-0.388,1.356-0.665,2.054-0.832c0.699-0.168,1.401-0.238,2.111-0.212
							c0.708,0.027,1.417,0.143,2.128,0.349c0.71,0.207,1.415,0.489,2.11,0.85c0.811,0.426,1.586,0.874,2.324,1.342
							c0.624,0.401,1.114,0.808,1.472,1.218c0.357,0.41,0.561,0.819,0.612,1.225c0.051,0.406-0.066,0.808-0.346,1.206
							c-0.281,0.398-0.748,0.785-1.401,1.162l-3.428,1.979c-0.1,0.058-0.228,0.083-0.384,0.076
							c-0.157-0.006-0.292-0.042-0.408-0.109l-10.147-5.858c-0.115-0.066-0.178-0.145-0.189-0.236
							c-0.012-0.09,0.033-0.164,0.133-0.221L349.519,433.938z M356.085,435.152c-0.354-0.182-0.722-0.33-1.105-0.441
							c-0.383-0.111-0.775-0.175-1.176-0.192s-0.802,0.022-1.204,0.114c-0.401,0.093-0.797,0.252-1.186,0.477l-1.823,1.053
							l7.068,4.081l1.891-1.092c0.372-0.215,0.634-0.435,0.786-0.662c0.152-0.227,0.213-0.452,0.185-0.678
							c-0.027-0.225-0.141-0.451-0.338-0.675c-0.198-0.224-0.456-0.438-0.772-0.643
							C357.671,436.026,356.895,435.579,356.085,435.152z"/>
						<path style="fill:#455A64;" d="M359.246,428.322c1.133-0.654,2.298-0.976,3.495-0.966c1.198,0.01,2.335,0.327,3.413,0.949
							c0.764,0.441,1.265,0.905,1.5,1.392c0.236,0.487,0.189,0.976-0.138,1.467l5.757,1.156c0.089,0.021,0.162,0.046,0.214,0.076
							c0.095,0.055,0.146,0.119,0.155,0.192c0.009,0.074-0.027,0.134-0.109,0.181l-1.156,0.667
							c-0.181,0.105-0.365,0.153-0.551,0.146c-0.186-0.008-0.338-0.025-0.459-0.053l-5.441-1.085l-1.81,1.045l3.66,2.113
							c0.116,0.067,0.179,0.144,0.19,0.235c0.011,0.091-0.032,0.164-0.132,0.222l-1.103,0.637c-0.1,0.057-0.228,0.083-0.384,0.076
							c-0.157-0.006-0.292-0.042-0.408-0.109l-10.147-5.858c-0.115-0.066-0.178-0.145-0.189-0.236
							c-0.012-0.09,0.033-0.164,0.133-0.221L359.246,428.322z M362.152,432.357l1.973-1.139c0.517-0.298,0.826-0.597,0.924-0.896
							c0.099-0.299-0.144-0.618-0.731-0.956c-0.586-0.338-1.133-0.477-1.641-0.413c-0.507,0.063-1.019,0.244-1.536,0.542
							l-1.973,1.139L362.152,432.357z"/>
						<path style="fill:#455A64;" d="M368.255,427.853c-0.559-0.354-1.015-0.729-1.365-1.125c-0.351-0.396-0.553-0.799-0.61-1.207
							c-0.056-0.409,0.049-0.82,0.313-1.233c0.265-0.413,0.733-0.813,1.404-1.2c0.662-0.382,1.348-0.651,2.058-0.807
							c0.709-0.156,1.422-0.216,2.136-0.181s1.414,0.151,2.099,0.348c0.685,0.197,1.339,0.46,1.964,0.789
							c0.208,0.11,0.435,0.233,0.68,0.369c0.245,0.137,0.496,0.279,0.753,0.427c0.256,0.148,0.503,0.293,0.739,0.434
							c0.237,0.142,0.45,0.272,0.64,0.392c0.559,0.355,1.014,0.73,1.365,1.126c0.35,0.396,0.554,0.799,0.609,1.208
							c0.056,0.409-0.054,0.82-0.328,1.232c-0.275,0.413-0.743,0.81-1.405,1.192c-0.671,0.387-1.361,0.659-2.071,0.815
							c-0.709,0.156-1.419,0.218-2.127,0.185c-0.708-0.033-1.406-0.15-2.092-0.353c-0.687-0.202-1.336-0.465-1.95-0.788
							c-0.209-0.109-0.435-0.232-0.681-0.369c-0.245-0.137-0.496-0.279-0.753-0.427c-0.257-0.148-0.503-0.293-0.74-0.435
							C368.658,428.105,368.445,427.974,368.255,427.853z M374.496,424.341c-0.791-0.414-1.585-0.63-2.383-0.646
							c-0.8-0.016-1.516,0.159-2.152,0.526c-0.634,0.366-0.938,0.78-0.909,1.242c0.028,0.461,0.4,0.92,1.118,1.377
							c0.38,0.24,0.814,0.5,1.301,0.782c0.487,0.281,0.938,0.531,1.353,0.751c0.791,0.414,1.583,0.628,2.377,0.641
							c0.794,0.013,1.508-0.163,2.143-0.529c0.635-0.367,0.94-0.779,0.918-1.238c-0.023-0.458-0.394-0.915-1.111-1.372
							c-0.38-0.24-0.812-0.501-1.299-0.782S374.911,424.561,374.496,424.341z"/>
						<path style="fill:#455A64;" d="M391.119,422.615c-0.154,0.089-0.32,0.13-0.494,0.122c-0.176-0.007-0.308-0.016-0.397-0.025
							l-10.343-1.573l6.471,3.736c0.116,0.067,0.179,0.144,0.19,0.235c0.011,0.091-0.032,0.164-0.132,0.222l-1.103,0.637
							c-0.1,0.057-0.227,0.083-0.384,0.076c-0.157-0.006-0.292-0.042-0.408-0.109l-10.147-5.858
							c-0.115-0.066-0.178-0.145-0.189-0.236c-0.012-0.09,0.033-0.164,0.133-0.221l0.952-0.55c0.155-0.089,0.32-0.13,0.496-0.123
							c0.176,0.007,0.308,0.016,0.397,0.025l10.342,1.574l-6.472-3.737c-0.115-0.066-0.178-0.145-0.189-0.236
							c-0.012-0.09,0.033-0.164,0.133-0.221l1.102-0.636c0.1-0.058,0.227-0.083,0.384-0.077c0.156,0.007,0.292,0.043,0.407,0.11
							l10.147,5.858c0.116,0.067,0.178,0.145,0.19,0.235c0.011,0.091-0.034,0.165-0.133,0.222L391.119,422.615z"/>
						<path style="fill:#455A64;" d="M398.937,415.834c0.1-0.058,0.227-0.082,0.384-0.076c0.157,0.006,0.291,0.043,0.407,0.11
							l1.115,0.643c0.116,0.067,0.179,0.145,0.19,0.235c0.011,0.091-0.032,0.164-0.132,0.222l-5.972,3.448
							c-0.1,0.058-0.228,0.083-0.384,0.076c-0.157-0.006-0.292-0.042-0.408-0.109l-10.147-5.858
							c-0.115-0.066-0.178-0.145-0.189-0.236c-0.012-0.09,0.033-0.164,0.133-0.221l5.863-3.385c0.1-0.058,0.228-0.083,0.384-0.077
							c0.156,0.007,0.292,0.043,0.407,0.11l1.115,0.644c0.116,0.067,0.178,0.145,0.19,0.235c0.011,0.091-0.034,0.165-0.133,0.222
							l-4.394,2.537l2.497,1.442l4.095-2.364c0.1-0.057,0.228-0.083,0.385-0.077c0.156,0.007,0.292,0.043,0.407,0.11l1.115,0.644
							c0.115,0.066,0.178,0.145,0.19,0.235c0.011,0.09-0.034,0.164-0.134,0.222l-4.095,2.364l2.608,1.505L398.937,415.834z"/>
					</g>
					<polygon style="fill:#BA68C8;" points="405.084,418.96 360.603,444.641 358.58,443.473 403.061,417.792 					"/>
				</g>
				<g>
					<path style="fill:#263238;" d="M338.874,451.16l-5.189-2.996c-0.31-0.179-0.325-0.46-0.035-0.627
						c0.29-0.168,0.777-0.159,1.086,0.02l5.189,2.996c0.31,0.179,0.325,0.46,0.035,0.627
						C339.669,451.348,339.183,451.339,338.874,451.16z"/>
					<g>
						<path style="fill:#263238;" d="M330.809,446.75c-0.349-0.201-0.349-0.528,0-0.729c0.349-0.201,0.914-0.201,1.263,0
							c0.349,0.201,0.349,0.528,0,0.729C331.723,446.952,331.158,446.952,330.809,446.75z"/>
					</g>
				</g>
			</g>
			<g>
				<g>
					<path style="fill:#455A64;" d="M377.283,450.198c-0.588,0.339-1.064,1.131-1.064,1.767c0,0.307,0.112,0.52,0.293,0.621
						c0.128,0.071,0.612,0.36,0.745,0.434c0.193,0.108,0.466,0.087,0.768-0.088l6.527-3.768c0.588-0.339,1.064-1.131,1.064-1.767
						c0-0.293-0.102-0.501-0.269-0.607c-0.132-0.083-0.635-0.373-0.768-0.448c-0.193-0.108-0.466-0.088-0.769,0.087L377.283,450.198
						z"/>
					<path style="fill:#37474F;" d="M378.026,450.628l6.527-3.768c0.588-0.339,1.064-0.098,1.064,0.538
						c0,0.637-0.476,1.428-1.064,1.767l-6.527,3.768c-0.588,0.339-1.064,0.098-1.064-0.538
						C376.961,451.758,377.438,450.967,378.026,450.628z"/>
				</g>
				<g>
					<path style="fill:#455A64;" d="M388.707,443.603c-0.588,0.339-1.064,1.13-1.064,1.767c0,0.307,0.112,0.52,0.293,0.621
						c0.128,0.071,0.612,0.36,0.745,0.434c0.193,0.107,0.466,0.087,0.768-0.088l6.527-3.768c0.588-0.339,1.064-1.13,1.064-1.767
						c0-0.293-0.102-0.501-0.269-0.606c-0.132-0.083-0.635-0.374-0.768-0.448c-0.193-0.108-0.466-0.088-0.769,0.087L388.707,443.603
						z"/>
					<path style="fill:#37474F;" d="M389.449,444.032l6.527-3.768c0.588-0.339,1.064-0.098,1.064,0.538
						c0,0.637-0.476,1.428-1.064,1.767l-6.527,3.768c-0.588,0.339-1.064,0.098-1.064-0.538
						C388.385,445.163,388.861,444.372,389.449,444.032z"/>
				</g>
			</g>
		</g>
		<g>
			<path style="fill:#BA68C8;" d="M377.004,451.514c-0.029-0.017-0.059-0.032-0.091-0.044l-2.701-1
				c-0.203-0.075-0.446-0.038-0.695,0.105l-8.733,5.034c-0.268,0.155-0.528,0.424-0.739,0.766l-2.409,3.903
				c-0.29,0.471-0.46,1.034-0.46,1.526v4.939l1.618,0.932l16.248-9.381l-0.007-4.882c0-0.458-0.147-0.805-0.399-0.961
				C378.603,452.433,377.15,451.602,377.004,451.514z"/>
			<path style="opacity:0.2;" d="M377.004,451.514c-0.029-0.017-0.059-0.032-0.091-0.044l-2.701-1
				c-0.203-0.075-0.446-0.038-0.695,0.105l-8.733,5.034c-0.268,0.155-0.528,0.424-0.739,0.766l-2.409,3.903
				c-0.29,0.471-0.46,1.034-0.46,1.526v4.939l1.618,0.932l16.248-9.381l-0.007-4.882c0-0.458-0.147-0.805-0.399-0.961
				C378.603,452.433,377.15,451.602,377.004,451.514z"/>
			<path style="fill:#BA68C8;" d="M373.719,450.501c-0.067,0.023-0.133,0.035-0.202,0.075l-8.733,5.034
				c-0.103,0.059-0.202,0.149-0.3,0.24l5.055,2.919l9.257-5.336L373.719,450.501z"/>
			<path style="opacity:0.2;fill:#FFFFFF;" d="M373.719,450.501c-0.067,0.023-0.133,0.035-0.202,0.075l-8.733,5.034
				c-0.103,0.059-0.202,0.149-0.3,0.24l5.055,2.919l9.257-5.336L373.719,450.501z"/>
			<path style="fill:#BA68C8;" d="M378.531,452.402l-2.701-0.999c-0.203-0.075-0.446-0.038-0.695,0.105l-8.732,5.034
				c-0.268,0.155-0.528,0.424-0.739,0.766l-2.409,3.903c-0.291,0.471-0.461,1.034-0.461,1.526v4.939l16.248-9.381l-0.007-4.882
				C379.035,452.897,378.847,452.519,378.531,452.402z"/>
		</g>
		<g>
			<path style="fill:#BA68C8;" d="M433.871,418.681c-0.029-0.017-0.059-0.032-0.091-0.044l-2.701-0.999
				c-0.203-0.075-0.446-0.038-0.695,0.105l-8.733,5.034c-0.268,0.155-0.528,0.424-0.739,0.766l-2.409,3.903
				c-0.29,0.471-0.46,1.034-0.46,1.526v4.939l1.618,0.932l16.248-9.381l-0.007-4.882c0-0.458-0.147-0.805-0.399-0.961
				C435.47,419.6,434.017,418.769,433.871,418.681z"/>
			<path style="opacity:0.2;" d="M433.871,418.681c-0.029-0.017-0.059-0.032-0.091-0.044l-2.701-0.999
				c-0.203-0.075-0.446-0.038-0.695,0.105l-8.733,5.034c-0.268,0.155-0.528,0.424-0.739,0.766l-2.409,3.903
				c-0.29,0.471-0.46,1.034-0.46,1.526v4.939l1.618,0.932l16.248-9.381l-0.007-4.882c0-0.458-0.147-0.805-0.399-0.961
				C435.47,419.6,434.017,418.769,433.871,418.681z"/>
			<path style="fill:#BA68C8;" d="M430.587,417.669c-0.067,0.023-0.133,0.035-0.202,0.075l-8.733,5.034
				c-0.103,0.059-0.202,0.149-0.3,0.24l5.055,2.919l9.257-5.336L430.587,417.669z"/>
			<path style="opacity:0.2;fill:#FFFFFF;" d="M430.587,417.669c-0.067,0.023-0.133,0.035-0.202,0.075l-8.733,5.034
				c-0.103,0.059-0.202,0.149-0.3,0.24l5.055,2.919l9.257-5.336L430.587,417.669z"/>
			<path style="fill:#BA68C8;" d="M435.398,419.569l-2.701-0.999c-0.203-0.075-0.446-0.038-0.695,0.106l-8.733,5.034
				c-0.268,0.155-0.528,0.424-0.739,0.766l-2.409,3.903c-0.291,0.471-0.461,1.034-0.461,1.526v4.939l16.248-9.381l-0.007-4.882
				C435.903,420.064,435.715,419.687,435.398,419.569z"/>
		</g>
		<g>
			<g>
				<path style="fill:#263238;" d="M311.456,417.1c0-1.762-1.164-3.525-3.493-4.869c-4.658-2.689-12.21-2.689-16.867,0
					c-2.329,1.344-3.493,3.107-3.493,4.869c0,1.07,0,1.833,0,2.903c0,1.762,1.165,3.525,3.493,4.869
					c4.658,2.689,12.21,2.689,16.867,0c2.329-1.345,3.493-3.107,3.493-4.869C311.456,418.933,311.456,418.17,311.456,417.1z"/>
				<path style="fill:#455A64;" d="M291.096,412.231c-2.329,1.345-3.493,3.107-3.493,4.869c0,1.762,1.165,3.524,3.493,4.869
					c4.658,2.689,12.21,2.689,16.867,0c2.329-1.345,3.493-3.107,3.493-4.869c0-1.762-1.165-3.525-3.493-4.869
					C303.305,409.542,295.754,409.542,291.096,412.231z"/>
				<path style="fill:#263238;" d="M309.322,417.1c0,0.499-0.128,0.991-0.399,1.468c-0.442,0.812-1.268,1.582-2.473,2.216
					c-3.819,2.038-10.019,2.038-13.846,0c-1.197-0.634-2.024-1.404-2.466-2.216c-0.271-0.478-0.399-0.969-0.399-1.468
					c0-1.332,0.955-2.672,2.865-3.684c3.827-2.038,10.026-2.038,13.846,0C308.367,414.428,309.322,415.767,309.322,417.1z"/>
			</g>
			<path style="fill:#37474F;" d="M308.759,418.839c-0.47,0.713-1.24,1.382-2.309,1.945c-3.819,2.038-10.019,2.038-13.846,0
				c-1.062-0.563-1.831-1.233-2.302-1.945c0.064-1.91,0.713-3.67,1.767-5.116c1.682-2.295,4.397-3.784,7.461-3.784
				c3.057,0,5.772,1.489,7.454,3.784C308.047,415.169,308.695,416.929,308.759,418.839z"/>
			<path style="fill:#455A64;" d="M297.463,411.345c-0.571,0.329-0.856,0.761-0.856,1.193c0,0.432,0.285,0.864,0.856,1.193
				c1.141,0.659,2.992,0.659,4.133,0c0.571-0.33,0.856-0.761,0.856-1.193c0-0.432-0.285-0.864-0.856-1.193
				C300.455,410.686,298.604,410.686,297.463,411.345z"/>
			<g>
				<path style="fill:#263238;" d="M301.013,408.998v4.995c-0.912,0.314-2.06,0.314-2.972,0v-4.995c0-0.214,0.15-0.435,0.435-0.606
					c0.584-0.335,1.525-0.335,2.102,0C300.871,408.563,301.013,408.784,301.013,408.998z"/>
				<path style="fill:#455A64;" d="M298.48,408.394c-0.29,0.167-0.435,0.387-0.435,0.606c0,0.219,0.145,0.439,0.435,0.606
					c0.58,0.335,1.52,0.335,2.099,0c0.29-0.167,0.435-0.387,0.435-0.606c0-0.219-0.145-0.439-0.435-0.606
					C300,408.059,299.06,408.059,298.48,408.394z"/>
			</g>
			<g>
				<ellipse style="fill:#BA68C8;" cx="299.528" cy="406.767" rx="7.813" ry="5.12"/>
				<path style="opacity:0.2;fill:#FFFFFF;" d="M304.547,403.074c2.772,1.6,2.772,4.195,0,5.796c-2.772,1.601-7.267,1.601-10.039,0
					c-2.772-1.6-2.772-4.195,0-5.796C297.281,401.473,301.775,401.473,304.547,403.074z"/>
			</g>
		</g>
		<g>
			<g>
				<path style="fill:#263238;" d="M384.558,374.889c0-1.762-1.164-3.525-3.493-4.869c-4.658-2.689-12.21-2.689-16.867,0
					c-2.329,1.344-3.493,3.107-3.493,4.869c0,1.07,0,1.833,0,2.903c0,1.762,1.165,3.525,3.493,4.869
					c4.658,2.689,12.21,2.689,16.867,0c2.329-1.344,3.493-3.107,3.493-4.869C384.558,376.722,384.558,375.959,384.558,374.889z"/>
				<path style="fill:#455A64;" d="M364.198,370.02c-2.329,1.344-3.493,3.107-3.493,4.869c0,1.762,1.165,3.525,3.494,4.869
					c4.658,2.689,12.21,2.689,16.867,0c2.329-1.345,3.493-3.107,3.493-4.869c0-1.762-1.164-3.525-3.493-4.869
					C376.407,367.331,368.855,367.331,364.198,370.02z"/>
				<path style="fill:#263238;" d="M382.424,374.889c0,0.499-0.128,0.991-0.399,1.468c-0.442,0.812-1.268,1.582-2.473,2.216
					c-3.819,2.038-10.019,2.038-13.846,0c-1.197-0.634-2.024-1.404-2.466-2.216c-0.271-0.477-0.399-0.969-0.399-1.468
					c0-1.333,0.955-2.672,2.865-3.684c3.827-2.038,10.026-2.038,13.846,0C381.469,372.216,382.424,373.556,382.424,374.889z"/>
			</g>
			<path style="fill:#37474F;" d="M381.861,376.627c-0.47,0.713-1.24,1.382-2.309,1.945c-3.819,2.038-10.019,2.038-13.846,0
				c-1.062-0.563-1.831-1.233-2.302-1.945c0.064-1.91,0.713-3.67,1.767-5.117c1.682-2.294,4.397-3.784,7.461-3.784
				c3.057,0,5.772,1.489,7.454,3.784C381.148,372.957,381.797,374.718,381.861,376.627z"/>
			<path style="fill:#455A64;" d="M370.565,369.134c-0.571,0.329-0.856,0.761-0.856,1.193c0,0.432,0.285,0.864,0.856,1.193
				c1.142,0.659,2.992,0.659,4.133,0c0.571-0.329,0.856-0.761,0.856-1.193c0-0.432-0.285-0.864-0.856-1.193
				C373.557,368.475,371.706,368.475,370.565,369.134z"/>
			<g>
				<path style="fill:#263238;" d="M374.115,366.786v4.995c-0.912,0.314-2.06,0.314-2.972,0v-4.995c0-0.214,0.15-0.435,0.435-0.606
					c0.584-0.335,1.525-0.335,2.102,0C373.973,366.352,374.115,366.573,374.115,366.786z"/>
				<path style="fill:#455A64;" d="M371.582,366.183c-0.29,0.167-0.435,0.387-0.435,0.606c0,0.219,0.145,0.439,0.435,0.606
					c0.58,0.335,1.52,0.335,2.1,0c0.29-0.167,0.435-0.387,0.435-0.606c0-0.219-0.145-0.439-0.435-0.606
					C373.101,365.848,372.161,365.848,371.582,366.183z"/>
			</g>
			<g>
				<path style="fill:#BA68C8;" d="M380.442,364.556c0,2.828-3.498,5.12-7.813,5.12c-4.315,0-7.813-2.292-7.813-5.12
					c0-2.828,3.498-5.12,7.813-5.12C376.945,359.436,380.442,361.728,380.442,364.556z"/>
				<path style="opacity:0.2;fill:#FFFFFF;" d="M377.649,360.863c2.772,1.6,2.772,4.195,0,5.796s-7.267,1.6-10.039,0
					c-2.772-1.6-2.772-4.195,0-5.796C370.383,359.262,374.877,359.262,377.649,360.863z"/>
			</g>
		</g>
		<g>
			<g>
				<path style="fill:#263238;" d="M310.908,405.947c-0.614,0.355-0.921,0.82-0.921,1.285s0.307,0.93,0.922,1.285
					c1.229,0.709,3.221,0.709,4.45,0c0.614-0.355,0.922-0.82,0.922-1.285c0-0.465-0.307-0.93-0.922-1.285
					C314.129,405.238,312.137,405.238,310.908,405.947z"/>
				<path style="fill:#BA68C8;" d="M316.006,405.573c0-0.424-0.28-0.849-0.841-1.173c-1.122-0.648-2.94-0.648-4.062,0
					c-0.561,0.324-0.841,0.748-0.841,1.173c0,0.258,0,1.238,0,1.495c0,0.424,0.28,0.849,0.841,1.173c1.122,0.648,2.94,0.648,4.062,0
					c0.561-0.324,0.841-0.748,0.841-1.173C316.006,406.811,316.006,405.831,316.006,405.573z"/>
				<path style="opacity:0.2;fill:#FFFFFF;" d="M311.248,404.464c-0.521,0.301-0.781,0.695-0.781,1.089
					c0,0.394,0.26,0.788,0.781,1.089c1.041,0.601,2.73,0.601,3.771,0c0.521-0.301,0.781-0.695,0.781-1.089
					c0-0.394-0.26-0.788-0.781-1.089C313.978,403.862,312.289,403.862,311.248,404.464z"/>
			</g>
			<g>
				<path style="fill:#263238;" d="M323.094,412.98c-0.614,0.355-0.922,0.82-0.922,1.285s0.307,0.93,0.922,1.284
					c1.229,0.709,3.221,0.709,4.45,0c0.614-0.355,0.922-0.82,0.922-1.284c0-0.465-0.307-0.93-0.922-1.285
					C326.315,412.271,324.322,412.271,323.094,412.98z"/>
				<path style="fill:#BA68C8;" d="M328.191,412.607c0-0.424-0.28-0.849-0.841-1.173c-1.122-0.648-2.94-0.648-4.062,0
					c-0.561,0.324-0.841,0.748-0.841,1.173c0,0.258,0,1.238,0,1.495c0,0.424,0.281,0.849,0.841,1.173
					c1.122,0.648,2.94,0.648,4.062,0c0.561-0.324,0.841-0.748,0.841-1.173C328.191,413.845,328.191,412.865,328.191,412.607z"/>
				<path style="opacity:0.2;fill:#FFFFFF;" d="M323.433,411.497c-0.521,0.301-0.781,0.695-0.781,1.089
					c0,0.394,0.26,0.788,0.781,1.089c1.041,0.601,2.73,0.601,3.771,0c0.521-0.301,0.781-0.695,0.781-1.089
					c0-0.394-0.26-0.788-0.781-1.089C326.163,410.896,324.474,410.896,323.433,411.497z"/>
			</g>
			<g>
				<path style="fill:#263238;" d="M351.528,382.496c-0.614,0.355-0.922,0.82-0.922,1.284s0.307,0.93,0.922,1.285
					c1.229,0.71,3.221,0.71,4.45,0c0.614-0.355,0.922-0.82,0.922-1.285s-0.307-0.93-0.922-1.284
					C354.749,381.786,352.757,381.786,351.528,382.496z"/>
				<path style="fill:#BA68C8;" d="M356.625,382.122c0-0.424-0.28-0.849-0.841-1.173c-1.122-0.648-2.94-0.648-4.062,0
					c-0.561,0.324-0.841,0.748-0.841,1.173c0,0.258,0,1.238,0,1.495c0,0.424,0.28,0.849,0.841,1.173c1.122,0.648,2.94,0.648,4.062,0
					c0.561-0.324,0.841-0.748,0.841-1.173C356.625,383.36,356.625,382.38,356.625,382.122z"/>
				<path style="opacity:0.2;fill:#FFFFFF;" d="M351.868,381.012c-0.521,0.301-0.781,0.695-0.781,1.089
					c0,0.394,0.26,0.788,0.781,1.089c1.041,0.601,2.73,0.601,3.771,0c0.521-0.301,0.781-0.695,0.781-1.089
					c0-0.394-0.26-0.788-0.781-1.089C354.597,380.411,352.909,380.411,351.868,381.012z"/>
			</g>
			<g>
				<path style="fill:#263238;" d="M363.713,389.529c-0.614,0.355-0.922,0.82-0.922,1.285c0,0.465,0.307,0.93,0.922,1.285
					c1.229,0.709,3.221,0.709,4.45,0c0.614-0.355,0.922-0.82,0.922-1.285c0-0.465-0.307-0.93-0.922-1.285
					C366.934,388.82,364.942,388.82,363.713,389.529z"/>
				<path style="fill:#BA68C8;" d="M368.811,389.156c0-0.424-0.28-0.849-0.841-1.173c-1.122-0.648-2.94-0.648-4.062,0
					c-0.561,0.324-0.841,0.748-0.841,1.173c0,0.258,0,1.238,0,1.495c0,0.424,0.28,0.849,0.841,1.173c1.122,0.648,2.94,0.648,4.062,0
					c0.561-0.324,0.841-0.748,0.841-1.173C368.811,390.394,368.811,389.414,368.811,389.156z"/>
				<path style="opacity:0.2;fill:#FFFFFF;" d="M364.053,388.046c-0.521,0.301-0.781,0.695-0.781,1.089
					c0,0.394,0.26,0.788,0.781,1.089c1.041,0.601,2.73,0.601,3.771,0c0.521-0.301,0.781-0.695,0.781-1.089
					c0-0.394-0.26-0.788-0.781-1.089C366.782,387.445,365.094,387.445,364.053,388.046z"/>
			</g>
		</g>
		<path style="fill:#F0F0F0;" d="M324.925,401.377l-5.268,3.042c-0.392,0.226-1.077,0.198-1.53-0.064l0,0
			c-0.453-0.261-0.502-0.657-0.11-0.883l5.268-3.041c0.392-0.227,1.077-0.198,1.53,0.063l0,0
			C325.268,400.755,325.317,401.15,324.925,401.377z"/>
		<path style="fill:#F0F0F0;" d="M336.424,408.001l-5.268,3.041c-0.392,0.226-1.077,0.198-1.53-0.063l0,0
			c-0.453-0.261-0.502-0.657-0.11-0.883l5.268-3.041c0.392-0.226,1.077-0.198,1.53,0.063l0,0
			C336.767,407.379,336.816,407.774,336.424,408.001z"/>
		<path style="fill:#F0F0F0;" d="M349.464,387.208l-5.268,3.041c-0.392,0.226-1.077,0.198-1.53-0.064l0,0
			c-0.453-0.261-0.502-0.657-0.11-0.883l5.268-3.041c0.392-0.227,1.077-0.198,1.53,0.063l0,0
			C349.807,386.586,349.856,386.982,349.464,387.208z"/>
		<path style="fill:#F0F0F0;" d="M360.963,393.832l-5.268,3.041c-0.392,0.226-1.077,0.198-1.53-0.063l0,0
			c-0.453-0.261-0.502-0.657-0.11-0.883l5.268-3.041c0.392-0.226,1.077-0.198,1.53,0.063l0,0
			C361.306,393.21,361.355,393.606,360.963,393.832z"/>
	</g>
</g>
<g id="Drone_00000165927698923440025200000012850992010723549568_">
	<g id="Drone">
		<g id="XMLID_00000054234556584417019410000017375188796189873543_">
			<path id="XMLID_00000169555996495771194730000015762029669870025359_" style="fill:#37474F;" d="M274.611,215.367
				c8.261,0,10.879-53.628,10.879-53.628h-21.759C263.731,161.738,266.349,215.367,274.611,215.367"/>
			<path id="XMLID_00000031927453760411333050000015875028888171369614_" style="fill:#455A64;" d="M282.302,157.297
				c-4.248-2.453-11.136-2.453-15.385,0c-4.249,2.453-4.249,6.43,0,8.882c4.248,2.453,11.137,2.453,15.385,0
				C286.551,163.727,286.551,159.75,282.302,157.297z"/>
		</g>
		<g id="XMLID_1339_">
			<polygon style="fill:#37474F;" points="397.161,269.533 263.299,249.175 278.917,177.522 278.917,171.06 266.957,170.391 
				212.846,246.102 65.829,244.443 62.315,250.808 62.315,257.27 196.01,283.428 180.558,349.281 180.558,355.744 192.516,356.412 
				246.629,286.648 393.647,282.359 397.161,275.995 			"/>
			<polygon id="XMLID_00000076595763397010391930000013498704351454039483_" style="fill:#455A64;" points="65.828,244.443 
				212.846,246.102 266.957,170.391 278.917,171.06 260.681,248.777 397.16,269.533 393.647,275.897 246.629,274.237 
				192.516,349.949 180.558,349.281 198.794,271.563 62.315,250.808 			"/>
		</g>
		<g>
			<g id="XMLID_1320_">
				<path id="XMLID_1323_" style="fill:#37474F;" d="M186.775,401.459c8.261,0,10.879-53.628,10.879-53.628h-21.759
					C175.895,347.83,178.514,401.459,186.775,401.459"/>
				<path id="XMLID_1322_" style="fill:#455A64;" d="M194.467,343.389c-4.248-2.453-11.136-2.453-15.385,0
					c-4.248,2.453-4.248,6.43,0,8.882c4.248,2.453,11.137,2.453,15.385,0C198.715,349.819,198.715,345.842,194.467,343.389z"/>
			</g>
			<g id="XMLID_707_">
				<path id="XMLID_932_" style="opacity:0.3;fill:#BA68C8;" d="M229.212,320.756l-42.437,24.496l-42.437-24.496
					C167.763,307.228,205.761,307.228,229.212,320.756z"/>
				<path id="XMLID_931_" style="opacity:0.1;fill:#BA68C8;" d="M229.212,369.748l-42.437-24.496l42.437-24.496
					C252.637,334.283,252.637,356.22,229.212,369.748z"/>
				<path id="XMLID_742_" style="opacity:0.3;fill:#BA68C8;" d="M229.212,369.748c-23.451,13.528-61.449,13.528-84.874,0
					l42.437-24.496L229.212,369.748z"/>
				<path id="XMLID_741_" style="opacity:0.1;fill:#BA68C8;" d="M186.775,345.252l-42.437,24.496
					c-23.426-13.528-23.426-35.464,0-48.992L186.775,345.252z"/>
				<path id="XMLID_740_" style="fill:#BA68C8;" d="M193.035,348.368v-2.657h-2.062c-2.385-1.252-6.015-1.252-8.397,0h-2.062v2.668
					h0.001c0.002,0.924,0.612,1.848,1.833,2.552c2.444,1.412,6.409,1.412,8.856,0C192.428,350.223,193.038,349.295,193.035,348.368z
					"/>
				<path id="XMLID_739_" style="opacity:0.3;" d="M193.035,348.368v-2.657h-2.062c-2.385-1.252-6.015-1.252-8.397,0h-2.062v2.668
					h0.001c0.002,0.924,0.612,1.848,1.833,2.552c2.444,1.412,6.409,1.412,8.856,0C192.428,350.223,193.038,349.295,193.035,348.368z
					"/>
				<path id="XMLID_738_" style="fill:#BA68C8;" d="M191.202,343.155c-2.447-1.411-6.412-1.411-8.856,0
					c-2.444,1.411-2.444,3.7,0,5.112c2.444,1.411,6.409,1.411,8.856,0C193.647,346.855,193.647,344.566,191.202,343.155z"/>
				<path id="XMLID_708_" style="fill:#455A64;" d="M188.973,344.442c-1.215-0.701-3.182-0.701-4.396,0
					c-1.213,0.7-1.213,1.837,0,2.537c1.213,0.701,3.181,0.701,4.396,0C190.186,346.279,190.186,345.142,188.973,344.442z"/>
			</g>
			<g>
				<path style="fill:#BA68C8;" d="M193.038,344.974h0.005c0,0-1.495-8.624-6.268-8.624c-4.773,0-6.268,8.624-6.268,8.624h0.005
					c-0.131,1.017,0.472,2.06,1.819,2.837c2.455,1.417,6.434,1.417,8.889,0C192.566,347.033,193.169,345.991,193.038,344.974z"/>
				<path style="opacity:0.5;fill:#FFFFFF;" d="M193.038,344.974h0.005c0,0-1.495-8.624-6.268-8.624
					c-4.773,0-6.268,8.624-6.268,8.624h0.005c-0.131,1.017,0.472,2.06,1.819,2.837c2.455,1.417,6.434,1.417,8.889,0
					C192.566,347.033,193.169,345.991,193.038,344.974z"/>
				<path style="opacity:0.3;fill:#BA68C8;" d="M185.414,347.268c-2.841-1.704-3.412-6.3-0.841-10.212
					c-3.042,2.05-4.066,7.917-4.066,7.917h0.005c-0.131,1.017,0.472,2.06,1.819,2.837c2.455,1.417,6.434,1.417,8.889,0
					c0.118-0.068,0.223-0.141,0.33-0.213C190.091,347.991,187.396,348.457,185.414,347.268z"/>
				<path style="opacity:0.3;fill:#FFFFFF;" d="M185.49,339.118c0.179,0.322,0.493,0.61,0.787,0.843
					c1.732,1.373,3.351,2.547,4.413,4.564c0.228,0.432,0.654,1.037,1.195,0.631c0.753-0.565-0.723-3.515-1.056-4.243
					c-0.627-1.368-1.55-2.79-3.038-3.311c-0.585-0.205-1.259-0.209-1.807,0.081c-0.278,0.147-0.527,0.38-0.61,0.683
					C185.301,338.63,185.36,338.883,185.49,339.118z"/>
			</g>
		</g>
		<g>
			<g id="XMLID_00000086658108084146840210000002910364185888009375_">
				<path id="XMLID_00000121984142444186902280000016826213364856628388_" style="fill:#37474F;" d="M396.209,325.556
					c8.261,0,10.879-53.628,10.879-53.628H385.33C385.33,271.928,387.948,325.556,396.209,325.556"/>
				<path id="XMLID_00000078762559012285022230000016662544015358616707_" style="fill:#455A64;" d="M403.901,267.487
					c-4.248-2.453-11.136-2.453-15.385,0c-4.249,2.453-4.249,6.43,0,8.882c4.248,2.453,11.137,2.453,15.385,0
					C408.149,273.916,408.149,269.939,403.901,267.487z"/>
			</g>
			<g id="XMLID_00000126286404269036730370000014801700694723055232_">
				<path id="XMLID_00000113344264770190224300000017947204655955803303_" style="opacity:0.3;fill:#BA68C8;" d="M438.646,244.853
					l-42.437,24.496l-42.437-24.496C377.197,231.326,415.195,231.326,438.646,244.853z"/>
				<path id="XMLID_00000088101845217441396110000001741481230237941951_" style="opacity:0.1;fill:#BA68C8;" d="M438.646,293.845
					l-42.437-24.496l42.437-24.496C462.071,258.381,462.071,280.318,438.646,293.845z"/>
				<path id="XMLID_00000071520068079766727330000009834156437946458504_" style="opacity:0.3;fill:#BA68C8;" d="M438.646,293.845
					c-23.451,13.527-61.449,13.527-84.874,0l42.437-24.496L438.646,293.845z"/>
				<path id="XMLID_00000052061627124984279850000000764623384400375694_" style="opacity:0.1;fill:#BA68C8;" d="M396.209,269.349
					l-42.437,24.496c-23.425-13.528-23.425-35.464,0-48.992L396.209,269.349z"/>
				<path id="XMLID_00000093137751973666625860000005674726355656928660_" style="fill:#BA68C8;" d="M402.469,272.465v-2.657h-2.062
					c-2.385-1.252-6.015-1.252-8.397,0h-2.062v2.668h0.001c0.002,0.924,0.612,1.847,1.833,2.552c2.444,1.412,6.409,1.412,8.856,0
					C401.862,274.321,402.472,273.393,402.469,272.465z"/>
				<path id="XMLID_00000034054934905277327370000004465161535022086321_" style="opacity:0.3;" d="M402.469,272.465v-2.657h-2.062
					c-2.385-1.252-6.015-1.252-8.397,0h-2.062v2.668h0.001c0.002,0.924,0.612,1.847,1.833,2.552c2.444,1.412,6.409,1.412,8.856,0
					C401.862,274.321,402.472,273.393,402.469,272.465z"/>
				<path id="XMLID_00000067952212703086964020000012240810311702842500_" style="fill:#BA68C8;" d="M400.637,267.252
					c-2.447-1.411-6.412-1.411-8.856,0c-2.444,1.411-2.444,3.7,0,5.112c2.444,1.411,6.409,1.411,8.856,0
					C403.081,270.953,403.081,268.664,400.637,267.252z"/>
				<path id="XMLID_00000100346637997326836310000007570375769179027901_" style="fill:#455A64;" d="M398.407,268.54
					c-1.215-0.701-3.182-0.701-4.396,0c-1.213,0.701-1.213,1.837,0,2.537c1.213,0.701,3.181,0.701,4.396,0
					C399.62,270.376,399.62,269.24,398.407,268.54z"/>
			</g>
			<g>
				<path style="fill:#BA68C8;" d="M402.453,269.291h0.005c0,0-1.495-8.624-6.268-8.624c-4.773,0-6.268,8.624-6.268,8.624h0.005
					c-0.131,1.017,0.472,2.06,1.818,2.837c2.455,1.417,6.434,1.417,8.889,0C401.981,271.351,402.584,270.308,402.453,269.291z"/>
				<path style="opacity:0.5;fill:#FFFFFF;" d="M402.453,269.291h0.005c0,0-1.495-8.624-6.268-8.624
					c-4.773,0-6.268,8.624-6.268,8.624h0.005c-0.131,1.017,0.472,2.06,1.818,2.837c2.455,1.417,6.434,1.417,8.889,0
					C401.981,271.351,402.584,270.308,402.453,269.291z"/>
				<path style="opacity:0.3;fill:#BA68C8;" d="M394.829,271.586c-2.841-1.704-3.412-6.3-0.841-10.212
					c-3.042,2.05-4.066,7.917-4.066,7.917h0.005c-0.131,1.017,0.472,2.06,1.819,2.837c2.455,1.417,6.434,1.417,8.889,0
					c0.118-0.068,0.223-0.141,0.33-0.213C399.506,272.308,396.81,272.775,394.829,271.586z"/>
				<path style="opacity:0.3;fill:#FFFFFF;" d="M394.905,263.435c0.179,0.322,0.493,0.61,0.787,0.843
					c1.732,1.373,3.351,2.547,4.413,4.564c0.228,0.432,0.654,1.037,1.195,0.631c0.753-0.565-0.723-3.515-1.056-4.243
					c-0.627-1.368-1.55-2.79-3.038-3.311c-0.586-0.205-1.259-0.209-1.807,0.081c-0.278,0.146-0.527,0.38-0.61,0.683
					C394.716,262.947,394.774,263.2,394.905,263.435z"/>
			</g>
		</g>
		<g>
			<g id="XMLID_00000044146847350221224310000013615136693995796406_">
				<path id="XMLID_00000101822988552352298750000009797204771325192111_" style="fill:#37474F;" d="M71.294,300.918
					c8.261,0,10.879-53.628,10.879-53.628H60.414C60.414,247.29,63.033,300.918,71.294,300.918"/>
				<path id="XMLID_00000114784015110061104270000001574483687948393885_" style="fill:#455A64;" d="M78.985,242.849
					c-4.248-2.453-11.136-2.453-15.385,0c-4.249,2.453-4.249,6.43,0,8.882c4.248,2.453,11.136,2.453,15.385,0
					C83.234,249.278,83.234,245.301,78.985,242.849z"/>
			</g>
			<g id="XMLID_00000150795241065444239340000015927199632976709815_">
				<path id="XMLID_00000000933404591952910540000014045648195309748919_" style="opacity:0.3;fill:#BA68C8;" d="M113.731,220.215
					l-42.437,24.496l-42.437-24.496C52.282,206.688,90.279,206.688,113.731,220.215z"/>
				<path id="XMLID_00000107590888419898168630000001966567504950271911_" style="opacity:0.1;fill:#BA68C8;" d="M113.731,269.208
					l-42.437-24.496l42.437-24.496C137.156,233.743,137.156,255.68,113.731,269.208z"/>
				<path id="XMLID_00000173848344598103460210000017044610664956729273_" style="opacity:0.3;fill:#BA68C8;" d="M113.731,269.208
					c-23.451,13.527-61.449,13.527-84.874,0l42.437-24.496L113.731,269.208z"/>
				<path id="XMLID_00000056406016917520460670000012953897338068890283_" style="opacity:0.1;fill:#BA68C8;" d="M71.294,244.711
					l-42.437,24.496c-23.425-13.528-23.425-35.465,0-48.992L71.294,244.711z"/>
				<path id="XMLID_00000078762455300576358720000012757588526912966787_" style="fill:#BA68C8;" d="M77.554,247.827v-2.657h-2.062
					c-2.385-1.252-6.015-1.252-8.398,0h-2.062v2.668h0.001c0.002,0.924,0.612,1.847,1.833,2.552c2.444,1.412,6.409,1.412,8.856,0
					C76.946,249.683,77.557,248.755,77.554,247.827z"/>
				<path id="XMLID_00000117659244932860644140000006059874942740567971_" style="opacity:0.3;" d="M77.554,247.827v-2.657h-2.062
					c-2.385-1.252-6.015-1.252-8.398,0h-2.062v2.668h0.001c0.002,0.924,0.612,1.847,1.833,2.552c2.444,1.412,6.409,1.412,8.856,0
					C76.946,249.683,77.557,248.755,77.554,247.827z"/>
				<path id="XMLID_00000042727617237853771290000010188672417064239801_" style="fill:#BA68C8;" d="M75.721,242.614
					c-2.447-1.411-6.412-1.411-8.856,0c-2.444,1.411-2.444,3.7,0,5.112c2.444,1.411,6.409,1.411,8.856,0
					C78.166,246.315,78.166,244.026,75.721,242.614z"/>
				<path id="XMLID_00000152221720264483977400000016125271358955858597_" style="fill:#455A64;" d="M73.491,243.902
					c-1.215-0.701-3.183-0.701-4.396,0c-1.213,0.701-1.213,1.837,0,2.537c1.213,0.701,3.181,0.701,4.396,0
					C74.705,245.738,74.705,244.602,73.491,243.902z"/>
			</g>
			<g>
				<path style="fill:#BA68C8;" d="M77.557,244.632h0.005c0,0-1.495-8.624-6.268-8.624c-4.773,0-6.267,8.624-6.267,8.624h0.005
					c-0.131,1.017,0.472,2.059,1.818,2.837c2.455,1.417,6.434,1.417,8.889,0C77.085,246.691,77.688,245.649,77.557,244.632z"/>
				<path style="opacity:0.5;fill:#FFFFFF;" d="M77.557,244.632h0.005c0,0-1.495-8.624-6.268-8.624
					c-4.773,0-6.267,8.624-6.267,8.624h0.005c-0.131,1.017,0.472,2.059,1.818,2.837c2.455,1.417,6.434,1.417,8.889,0
					C77.085,246.691,77.688,245.649,77.557,244.632z"/>
				<path style="opacity:0.3;fill:#BA68C8;" d="M69.933,246.927c-2.841-1.704-3.412-6.3-0.841-10.212
					c-3.042,2.05-4.066,7.917-4.066,7.917h0.005c-0.131,1.017,0.472,2.06,1.819,2.837c2.455,1.417,6.434,1.417,8.889,0
					c0.118-0.068,0.223-0.141,0.33-0.213C74.61,247.649,71.914,248.115,69.933,246.927z"/>
				<path style="opacity:0.3;fill:#FFFFFF;" d="M70.009,238.776c0.179,0.322,0.493,0.61,0.787,0.843
					c1.731,1.373,3.351,2.547,4.413,4.564c0.228,0.432,0.654,1.037,1.195,0.631c0.753-0.565-0.723-3.515-1.056-4.243
					c-0.627-1.368-1.55-2.79-3.038-3.311c-0.586-0.205-1.259-0.209-1.807,0.081c-0.278,0.147-0.527,0.38-0.61,0.683
					C69.82,238.288,69.879,238.541,70.009,238.776z"/>
			</g>
		</g>
		<g>
			<g id="XMLID_00000107563560680208399070000011694547840011204514_">
				<path id="XMLID_00000059291964838666751650000008755249255157254026_" style="opacity:0.3;fill:#BA68C8;" d="M317.048,134.664
					l-42.437,24.496l-42.437-24.496C255.598,121.136,293.596,121.136,317.048,134.664z"/>
				<path id="XMLID_00000115497139607531769030000017382610534553653934_" style="opacity:0.1;fill:#BA68C8;" d="M317.048,183.656
					l-42.437-24.496l42.437-24.496C340.473,148.191,340.473,170.128,317.048,183.656z"/>
				<path id="XMLID_00000099646317505898681130000009705774171822728075_" style="opacity:0.3;fill:#BA68C8;" d="M317.048,183.656
					c-23.451,13.527-61.449,13.527-84.874,0l42.437-24.496L317.048,183.656z"/>
				<path id="XMLID_00000108292048595214011230000005729982931021377969_" style="opacity:0.1;fill:#BA68C8;" d="M274.611,159.16
					l-42.437,24.496c-23.425-13.528-23.425-35.464,0-48.992L274.611,159.16z"/>
				<path id="XMLID_00000121958061798095330440000016230627618728990090_" style="fill:#BA68C8;" d="M280.871,162.276v-2.657h-2.062
					c-2.385-1.252-6.015-1.252-8.398,0h-2.062v2.668h0.001c0.002,0.924,0.612,1.847,1.833,2.552c2.444,1.412,6.409,1.412,8.856,0
					C280.263,164.131,280.874,163.203,280.871,162.276z"/>
				<path id="XMLID_00000174598289533474788990000001454522468792651432_" style="opacity:0.3;" d="M280.871,162.276v-2.657h-2.062
					c-2.385-1.252-6.015-1.252-8.398,0h-2.062v2.668h0.001c0.002,0.924,0.612,1.847,1.833,2.552c2.444,1.412,6.409,1.412,8.856,0
					C280.263,164.131,280.874,163.203,280.871,162.276z"/>
				<path id="XMLID_00000046330571616333588370000004789213980378920084_" style="fill:#BA68C8;" d="M279.038,157.063
					c-2.447-1.411-6.412-1.411-8.856,0c-2.444,1.411-2.444,3.7,0,5.112c2.444,1.411,6.409,1.411,8.856,0
					C281.483,160.763,281.483,158.474,279.038,157.063z"/>
				<path id="XMLID_00000034056968669579117290000009838255717101274788_" style="fill:#455A64;" d="M276.808,158.35
					c-1.215-0.701-3.183-0.701-4.396,0c-1.213,0.701-1.213,1.837,0,2.537c1.213,0.701,3.181,0.701,4.396,0
					C278.022,160.187,278.022,159.051,276.808,158.35z"/>
			</g>
			<g>
				<path style="fill:#BA68C8;" d="M280.874,158.927h0.005c0,0-1.495-8.624-6.268-8.624c-4.773,0-6.267,8.624-6.267,8.624h0.005
					c-0.131,1.017,0.472,2.06,1.819,2.837c2.455,1.417,6.434,1.417,8.889,0C280.402,160.987,281.005,159.944,280.874,158.927z"/>
				<path style="opacity:0.5;fill:#FFFFFF;" d="M280.874,158.927h0.005c0,0-1.495-8.624-6.268-8.624
					c-4.773,0-6.267,8.624-6.267,8.624h0.005c-0.131,1.017,0.472,2.06,1.819,2.837c2.455,1.417,6.434,1.417,8.889,0
					C280.402,160.987,281.005,159.944,280.874,158.927z"/>
				<path style="opacity:0.3;fill:#BA68C8;" d="M273.25,161.222c-2.841-1.704-3.412-6.3-0.841-10.212
					c-3.042,2.05-4.066,7.917-4.066,7.917h0.005c-0.131,1.017,0.472,2.06,1.819,2.837c2.455,1.417,6.434,1.417,8.889,0
					c0.118-0.068,0.223-0.141,0.33-0.213C277.927,161.945,275.231,162.411,273.25,161.222z"/>
				<path style="opacity:0.3;fill:#FFFFFF;" d="M273.326,153.072c0.179,0.322,0.493,0.61,0.787,0.843
					c1.732,1.373,3.351,2.547,4.413,4.564c0.228,0.432,0.654,1.037,1.195,0.631c0.753-0.565-0.723-3.515-1.056-4.243
					c-0.627-1.368-1.55-2.79-3.039-3.311c-0.585-0.205-1.259-0.209-1.807,0.081c-0.278,0.146-0.527,0.38-0.61,0.683
					C273.137,152.583,273.195,152.837,273.326,153.072z"/>
			</g>
		</g>
		<g>
			<g>
				<path style="fill:#263238;" d="M321,265.212l-25.414-26.815c0,0-38.977-21.292-63.475-34.902
					c-24.498-13.61-42.83-20.672-65.127-7.799c-8.198,4.733-11.728,9.157-11.743,13.562c-0.021,6.211,2.477,24.614,3.37,34.631
					c0.673,7.541,6.983,16.362,21.88,25.3c23.573,14.144,60.453,36.647,60.453,36.647l25.876,9.448l39.374-22.732L321,265.212z"/>
				<path style="fill:#37474F;" d="M281.626,287.944L321,265.212l-25.414-26.815c0,0-38.977-21.292-63.475-34.902
					c-24.498-13.61-42.83-20.672-65.127-7.799c-22.297,12.873-10.065,23.457,13.508,37.601
					c23.573,14.144,60.453,36.647,60.453,36.647L281.626,287.944z"/>
				<path style="fill:#455A64;" d="M321,265.212l-31.791-26.601c0,0-68.993-38.427-73.058-40.774
					c-4.065-2.347-12.667-4.839-12.667-4.839c-12.742-2.609-23.162-1.784-30.817,2.636h0c-7.655,4.42-11.722,13.008-1.896,17.792
					c6.148,2.994,9.914,4.887,9.914,4.887l70.622,42.18l30.319,27.451L321,265.212z"/>
				<path style="opacity:0.1;" d="M203.485,192.998c-12.742-2.609-23.162-1.784-30.817,2.636l0,0
					c-7.655,4.42-11.722,13.008-1.896,17.792c6.148,2.994,9.914,4.887,9.914,4.887l35.466-20.476
					C212.086,195.49,203.485,192.998,203.485,192.998z"/>
				<polygon style="opacity:0.1;" points="289.209,238.611 251.307,260.493 281.626,287.944 321,265.212 				"/>
				<polygon points="281.626,287.944 266.82,315.283 306.194,292.551 321,265.212 				"/>
				<path style="fill:#37474F;" d="M178.313,267.84c0.707,0.449,1.429,0.899,2.178,1.348c18.075,10.845,43.973,26.605,55.07,33.366
					V282.97l-57.248-33.052V267.84z"/>
				<path style="fill:#263238;" d="M195.916,278.483c0.94,0.568,1.884,1.139,2.83,1.711v-14.239l-2.83-1.634V278.483z
					 M189.512,274.616c0.934,0.563,1.879,1.134,2.83,1.707v-14.065l-2.83-1.634V274.616z M202.32,282.358
					c0.945,0.572,1.888,1.144,2.829,1.714v-14.419l-2.829-1.634V282.358z M183.109,270.76c0.929,0.558,1.87,1.125,2.83,1.702
					v-13.901l-2.83-1.634V270.76z M221.532,294.016c0.968,0.589,1.909,1.161,2.83,1.721v-14.992l-2.83-1.634V294.016z
					 M227.936,282.809v15.103c0.986,0.6,1.931,1.175,2.829,1.722v-15.191L227.936,282.809z M215.128,290.125
					c0.955,0.58,1.902,1.155,2.83,1.719v-14.796l-2.83-1.634V290.125z M208.724,286.239c0.951,0.577,1.893,1.148,2.83,1.717V273.35
					l-2.83-1.634V286.239z"/>
				<g>
					<g>
						<path style="fill:#FAFAFA;" d="M183.749,206.507c0.242-0.14,0.489-0.24,0.74-0.3c0.252-0.06,0.505-0.086,0.76-0.076
							c0.255,0.01,0.511,0.052,0.767,0.126c0.256,0.075,0.51,0.176,0.76,0.306c0.292,0.153,0.572,0.315,0.837,0.483
							c0.225,0.145,0.401,0.291,0.53,0.439c0.128,0.148,0.202,0.295,0.22,0.441c0.018,0.146-0.024,0.291-0.125,0.435
							c-0.101,0.143-0.269,0.283-0.505,0.419l-1.235,0.713c-0.036,0.021-0.082,0.03-0.138,0.027
							c-0.057-0.002-0.105-0.015-0.147-0.039l-3.655-2.11c-0.042-0.024-0.064-0.052-0.068-0.085
							c-0.004-0.032,0.012-0.059,0.048-0.08L183.749,206.507z M186.115,206.945c-0.128-0.066-0.26-0.119-0.398-0.159
							c-0.138-0.04-0.279-0.063-0.424-0.069c-0.144-0.006-0.289,0.008-0.434,0.041c-0.145,0.033-0.287,0.091-0.427,0.172
							l-0.657,0.379l2.546,1.47l0.681-0.393c0.134-0.077,0.228-0.157,0.283-0.239c0.055-0.082,0.077-0.163,0.067-0.244
							c-0.01-0.081-0.051-0.162-0.122-0.243c-0.071-0.081-0.164-0.158-0.278-0.232C186.686,207.26,186.407,207.098,186.115,206.945z
							"/>
						<path style="fill:#FAFAFA;" d="M187.253,204.484c0.408-0.236,0.828-0.352,1.259-0.348c0.431,0.004,0.841,0.118,1.23,0.342
							c0.275,0.159,0.456,0.326,0.54,0.502c0.085,0.175,0.068,0.352-0.05,0.529l2.074,0.416c0.032,0.008,0.058,0.017,0.077,0.027
							c0.034,0.02,0.053,0.043,0.056,0.069c0.003,0.027-0.01,0.048-0.039,0.065l-0.416,0.24c-0.065,0.038-0.132,0.055-0.199,0.053
							c-0.067-0.003-0.122-0.009-0.165-0.019l-1.96-0.391l-0.652,0.376l1.318,0.761c0.042,0.024,0.065,0.052,0.069,0.085
							c0.004,0.033-0.012,0.059-0.048,0.08l-0.397,0.229c-0.036,0.021-0.082,0.03-0.138,0.028c-0.056-0.002-0.105-0.015-0.147-0.039
							l-3.655-2.11c-0.041-0.024-0.064-0.052-0.068-0.085c-0.004-0.032,0.012-0.059,0.048-0.08L187.253,204.484z M188.3,205.938
							l0.711-0.41c0.186-0.108,0.297-0.215,0.333-0.323c0.036-0.108-0.052-0.223-0.263-0.344c-0.211-0.122-0.408-0.172-0.591-0.149
							c-0.182,0.023-0.367,0.088-0.553,0.195l-0.711,0.41L188.3,205.938z"/>
						<path style="fill:#FAFAFA;" d="M190.499,204.315c-0.201-0.128-0.366-0.263-0.492-0.406c-0.126-0.143-0.199-0.288-0.22-0.435
							c-0.02-0.147,0.018-0.295,0.113-0.444c0.096-0.149,0.264-0.293,0.506-0.432c0.239-0.138,0.486-0.235,0.741-0.291
							c0.255-0.056,0.512-0.078,0.769-0.065c0.257,0.013,0.509,0.055,0.756,0.125c0.247,0.071,0.482,0.166,0.707,0.284
							c0.075,0.04,0.157,0.084,0.245,0.133c0.088,0.049,0.179,0.1,0.271,0.154c0.092,0.053,0.181,0.105,0.266,0.156
							c0.085,0.051,0.162,0.098,0.23,0.141c0.201,0.128,0.365,0.263,0.492,0.406c0.126,0.143,0.2,0.288,0.22,0.435
							c0.02,0.147-0.02,0.295-0.118,0.444c-0.099,0.149-0.268,0.292-0.506,0.429c-0.242,0.14-0.49,0.237-0.746,0.294
							c-0.256,0.056-0.511,0.078-0.766,0.067c-0.255-0.012-0.507-0.054-0.754-0.127c-0.247-0.073-0.481-0.167-0.702-0.284
							c-0.075-0.039-0.157-0.084-0.245-0.133c-0.088-0.049-0.179-0.1-0.271-0.154c-0.093-0.053-0.181-0.106-0.266-0.157
							C190.644,204.406,190.568,204.359,190.499,204.315z M192.747,203.05c-0.285-0.149-0.571-0.227-0.859-0.233
							c-0.288-0.006-0.546,0.057-0.775,0.189c-0.229,0.132-0.338,0.281-0.328,0.447c0.01,0.166,0.144,0.331,0.403,0.496
							c0.137,0.087,0.293,0.18,0.469,0.282c0.175,0.101,0.338,0.191,0.488,0.27c0.285,0.149,0.57,0.226,0.856,0.231
							c0.286,0.005,0.543-0.059,0.772-0.191c0.229-0.132,0.339-0.281,0.331-0.446c-0.008-0.165-0.142-0.33-0.4-0.494
							c-0.137-0.086-0.293-0.18-0.468-0.282C193.06,203.219,192.897,203.129,192.747,203.05z"/>
						<path style="fill:#FAFAFA;" d="M198.736,202.428c-0.055,0.032-0.115,0.047-0.178,0.044c-0.064-0.003-0.111-0.006-0.143-0.009
							l-3.726-0.567l2.331,1.346c0.042,0.024,0.065,0.052,0.068,0.085c0.004,0.033-0.012,0.059-0.048,0.08l-0.397,0.229
							c-0.036,0.021-0.082,0.03-0.138,0.027c-0.056-0.002-0.105-0.015-0.147-0.039l-3.655-2.111
							c-0.041-0.024-0.064-0.052-0.068-0.085c-0.004-0.032,0.012-0.059,0.048-0.08l0.343-0.198c0.056-0.032,0.115-0.047,0.178-0.044
							c0.063,0.003,0.111,0.006,0.143,0.009l3.726,0.567l-2.331-1.346c-0.041-0.024-0.064-0.052-0.068-0.085
							c-0.004-0.032,0.012-0.059,0.048-0.08l0.397-0.229c0.036-0.021,0.082-0.03,0.139-0.028c0.056,0.003,0.105,0.016,0.147,0.039
							l3.655,2.111c0.042,0.024,0.064,0.052,0.068,0.085c0.004,0.033-0.012,0.059-0.048,0.08L198.736,202.428z"/>
						<path style="fill:#FAFAFA;" d="M201.553,199.985c0.036-0.021,0.082-0.03,0.138-0.028c0.057,0.002,0.105,0.016,0.147,0.04
							l0.402,0.232c0.042,0.024,0.065,0.052,0.068,0.085c0.004,0.033-0.012,0.059-0.048,0.08l-2.151,1.242
							c-0.036,0.021-0.082,0.03-0.138,0.027c-0.056-0.002-0.105-0.015-0.147-0.039l-3.655-2.11
							c-0.041-0.024-0.064-0.052-0.068-0.085c-0.004-0.032,0.012-0.059,0.048-0.08l2.112-1.219c0.036-0.021,0.082-0.03,0.139-0.028
							c0.056,0.003,0.105,0.016,0.147,0.039l0.402,0.232c0.042,0.024,0.064,0.052,0.068,0.085c0.004,0.033-0.012,0.059-0.048,0.08
							l-1.583,0.914l0.9,0.519l1.475-0.852c0.036-0.021,0.082-0.03,0.139-0.028c0.056,0.003,0.105,0.016,0.147,0.04l0.402,0.232
							c0.042,0.024,0.064,0.052,0.068,0.085c0.004,0.033-0.012,0.059-0.048,0.08l-1.475,0.852l0.939,0.542L201.553,199.985z"/>
					</g>
					<polygon style="fill:#BA68C8;" points="203.767,201.111 187.742,210.363 187.014,209.942 203.038,200.691 					"/>
				</g>
			</g>
			<g>
				<g>
					<path style="fill:#455A64;" d="M305.01,287.921c-6.001,6.823-15.329,13.19-20.834,14.222
						c-5.505,1.032-5.103-3.663,0.899-10.486c6.001-6.823,15.329-13.191,20.835-14.222
						C311.414,276.402,311.011,281.097,305.01,287.921z"/>
				</g>
				<g>
					<path style="fill:#37474F;" d="M283.46,302.956c-5.858,1.098-5.428-3.915,0.958-11.176
						c6.386-7.261,16.346-14.059,22.204-15.157c5.858-1.098,5.428,3.915-0.958,11.176
						C299.278,295.059,289.318,301.858,283.46,302.956z M305.194,278.247c-5.135,0.962-13.867,6.923-19.465,13.287
						c-5.598,6.364-5.975,10.759-0.84,9.797c5.135-0.962,13.867-6.923,19.465-13.287
						C309.952,281.68,310.328,277.285,305.194,278.247z"/>
				</g>
				<g>
					<path style="fill:#37474F;" d="M300.799,288.71c-3.466,3.94-8.853,7.618-12.033,8.214c-3.179,0.596-2.947-2.116,0.519-6.056
						c3.466-3.941,8.853-7.618,12.033-8.214C304.497,282.058,304.265,284.769,300.799,288.71z"/>
				</g>
				<g>
					<path style="fill:#263238;" d="M297.993,289.235c-1.777,2.02-4.539,3.905-6.169,4.211c-1.63,0.305-1.511-1.085,0.266-3.105
						c1.777-2.02,4.539-3.905,6.169-4.211C299.889,285.825,299.77,287.215,297.993,289.235z"/>
				</g>
				<g>
					<path style="fill:#FAFAFA;" d="M296.889,287.147c-0.828,0.942-2.116,1.821-2.876,1.963c-0.76,0.142-0.704-0.506,0.124-1.447
						s2.116-1.821,2.876-1.963C297.773,285.557,297.718,286.206,296.889,287.147z"/>
				</g>
			</g>
		</g>
	</g>
</g>
</svg>
